<?xml version="1.0" encoding="utf-8"?>
<!-- Generator: Adobe Illustrator 27.0.0, SVG Export Plug-In . SVG Version: 6.00 Build 0)  -->
<svg version="1.1" id="Layer_1" xmlns="http://www.w3.org/2000/svg" xmlns:xlink="http://www.w3.org/1999/xlink" x="0px" y="0px"
	 viewBox="0 0 800 2603" style="enable-background:new 0 0 800 2603;" xml:space="preserve">
<style type="text/css">
	@import url('https://fonts.googleapis.com/css?family=Roboto:300,400,700');
	.st0{clip-path:url(#SVGID_00000129207576437778779980000004060710688124318883_);}
	.st1{fill:#9F9E9E;}
	.st2{fill:#FFFFFF;}
	.st3{font-family:'Roboto';font-weight: 700;}
	.st4{font-size:26px;}
	.st5{fill:#1D1D1B;}
	.st6{font-family:'Roboto';font-weight: 300;}
	.st7{font-size:24px;}
	.st8{fill:#949393;}
	.st9{fill:#868686;}
	.st10{font-family:'Roboto';font-weight: 700;}
	.st11{font-size:38px;}
	.st12{clip-path:url(#SVGID_00000132780190376494386690000017970961321148505776_);}
	.st13{clip-path:url(#SVGID_00000005226552396106525440000006425317845604756671_);}
	.st14{clip-path:url(#SVGID_00000134969350392944287070000006525587148881402290_);}
	.st15{clip-path:url(#SVGID_00000065763305606272879340000005875167349464149427_);}
	.st16{font-family:'Roboto';font-weight: 400;}
	.st17{fill:#231F20;}
	.st18{font-size:32px;}
	.st19{fill:#E84D1F;}
	.st20{fill:none;}
</style>
<g>
	<defs>
		<rect id="SVGID_1_" x="-18.6" y="1612.07" width="546.01" height="361.03"/>
	</defs>
	<clipPath id="SVGID_00000157279433604278304480000004226577562751687305_">
		<use xlink:href="#SVGID_1_"  style="overflow:visible;"/>
	</clipPath>
	<g id="_x35_monkeys.psd_9_" style="clip-path:url(#SVGID_00000157279433604278304480000004226577562751687305_);">
		
			<image style="overflow:visible;" width="1415" height="3971" id="_x35_monkeys" xlink:href="24CDCD03D90A38D9.png"  transform="matrix(0.4635 0 0 0.4635 -87.4899 525.158)">
		</image>
	</g>
</g>
<path class="st1" d="M624.64,330.32h-45.79c-1.8,0-3.25-1.46-3.25-3.25v-34.7c0-1.8,1.46-3.25,3.25-3.25h45.79
	c1.8,0,3.25,1.46,3.25,3.25v34.7C627.89,328.87,626.43,330.32,624.64,330.32z"/>
<g>
	<text transform="matrix(1 0 0 1 583.592 320.7847)" class="st2 st3 st4">EN</text>
</g>
<g>
	<text transform="matrix(1 0 0 1 575.592 774.769)" class="st5 st6 st7">Endangered</text>
</g>
<path class="st1" d="M624.64,746.18h-45.79c-1.8,0-3.25-1.46-3.25-3.25v-34.7c0-1.8,1.46-3.25,3.25-3.25h45.79
	c1.8,0,3.25,1.46,3.25,3.25v34.7C627.89,744.72,626.43,746.18,624.64,746.18z"/>
<g>
	<text transform="matrix(1 0 0 1 583.592 736.6382)" class="st2 st3 st4">EN</text>
</g>
<g>
	<text transform="matrix(1 0 0 1 575.5928 1244.019)"><tspan x="0" y="0" class="st5 st6 st7">Critically</tspan><tspan x="0" y="24" class="st5 st6 st7">endangered</tspan></text>
</g>
<path class="st8" d="M624.64,1215.43h-45.79c-1.8,0-3.25-1.46-3.25-3.25v-34.7c0-1.8,1.46-3.25,3.25-3.25h45.79
	c1.8,0,3.25,1.46,3.25,3.25v34.7C627.89,1213.97,626.43,1215.43,624.64,1215.43z"/>
<g>
	<text transform="matrix(1 0 0 1 583.5923 1205.8882)" class="st2 st3 st4">CR</text>
</g>
<g>
	<text transform="matrix(1 0 0 1 575.592 1714.2202)"><tspan x="0" y="0" class="st5 st6 st7">Critically</tspan><tspan x="0" y="24" class="st5 st6 st7">endangered</tspan></text>
</g>
<path class="st8" d="M624.64,1685.63h-45.79c-1.8,0-3.25-1.46-3.25-3.25v-34.7c0-1.8,1.46-3.25,3.25-3.25h45.79
	c1.8,0,3.25,1.46,3.25,3.25v34.7C627.89,1684.17,626.43,1685.63,624.64,1685.63z"/>
<g>
	<text transform="matrix(1 0 0 1 583.592 1676.0894)" class="st2 st3 st4">CR</text>
</g>
<g>
	<text transform="matrix(1 0 0 1 575.592 2238.9038)"><tspan x="0" y="0" class="st5 st6 st7">Critically</tspan><tspan x="0" y="24" class="st5 st6 st7">endangered</tspan></text>
</g>
<path class="st8" d="M624.64,2210.31h-45.79c-1.8,0-3.25-1.46-3.25-3.25v-34.7c0-1.8,1.46-3.25,3.25-3.25h45.79
	c1.8,0,3.25,1.46,3.25,3.25v34.7C627.89,2208.86,626.43,2210.31,624.64,2210.31z"/>
<g>
	<text transform="matrix(1 0 0 1 583.592 2200.7749)" class="st2 st3 st4">CR</text>
</g>
<g>
	<text transform="matrix(1 0 0 1 575.592 358.9155)" class="st5 st6 st7">Endangered</text>
</g>
<text transform="matrix(1 0 0 1.0001 54.1897 1642.5327)" class="st9 st10 st11">Myanmar</text>
<g>
	<text transform="matrix(1 0 0 1 54.1897 1676.2124)" class="st5 st6 st7">Active in China</text>
</g>
<g>
	<defs>
		<rect id="SVGID_00000174577367122677292220000016232290496753447596_" x="28.6" y="664.87" width="546.01" height="361.03"/>
	</defs>
	<clipPath id="SVGID_00000127762295430061969700000003473438589167224719_">
		<use xlink:href="#SVGID_00000174577367122677292220000016232290496753447596_"  style="overflow:visible;"/>
	</clipPath>
	<g id="_x35_monkeys.psd_8_" style="clip-path:url(#SVGID_00000127762295430061969700000003473438589167224719_);">
		
			<image style="overflow:visible;" width="1415" height="3971" id="_x35_monkeys_00000111161310552937637630000008156612784311196311_" xlink:href="24CDCD03D90A38DB.png"  transform="matrix(0.4635 0 0 0.4635 -53.0455 664.8699)">
		</image>
	</g>
</g>
<g>
	<defs>
		<rect id="SVGID_00000131343318492742699190000007758100041703226520_" x="43.91" y="1148.99" width="546.01" height="361.03"/>
	</defs>
	<clipPath id="SVGID_00000142864068097232414230000013351009973892525473_">
		<use xlink:href="#SVGID_00000131343318492742699190000007758100041703226520_"  style="overflow:visible;"/>
	</clipPath>
	<g id="_x35_monkeys.psd_7_" style="clip-path:url(#SVGID_00000142864068097232414230000013351009973892525473_);">
		
			<image style="overflow:visible;" width="1415" height="3971" id="_x35_monkeys_00000169534385863867767100000000538418160047103886_" xlink:href="24CDCD03D90A38DE.png"  transform="matrix(0.4635 0 0 0.4635 -37.7368 790.5078)">
		</image>
	</g>
</g>
<g>
	<defs>
		<rect id="SVGID_00000170256768435323245830000002240829724980997309_" x="55.39" y="169.23" width="546.01" height="361.03"/>
	</defs>
	<clipPath id="SVGID_00000177443888156062543360000016681627932067741062_">
		<use xlink:href="#SVGID_00000170256768435323245830000002240829724980997309_"  style="overflow:visible;"/>
	</clipPath>
	<g id="_x35_monkeys.psd_6_" style="clip-path:url(#SVGID_00000177443888156062543360000016681627932067741062_);">
		
			<image style="overflow:visible;" width="1415" height="3971" id="_x35_monkeys_00000028300309744580578870000011807203985455578299_" xlink:href="24CDCD03D90A38DF.png"  transform="matrix(0.4635 0 0 0.4635 -13.4981 -554.1013)">
		</image>
	</g>
</g>
<g>
	<defs>
		<rect id="SVGID_00000150805292245160891340000014992692319487611021_" x="19.67" y="2121.08" width="546.01" height="361.03"/>
	</defs>
	<clipPath id="SVGID_00000000192956786474189820000004727404616751802524_">
		<use xlink:href="#SVGID_00000150805292245160891340000014992692319487611021_"  style="overflow:visible;"/>
	</clipPath>
	<g id="_x35_monkeys.psd_5_" style="clip-path:url(#SVGID_00000000192956786474189820000004727404616751802524_);">
		
			<image style="overflow:visible;" width="1415" height="3971" id="_x35_monkeys_00000099641980246482341110000006311580613825950599_" xlink:href="24CDCD03D90A38DA.png"  transform="matrix(0.4635 0 0 0.4635 -49.2183 650.1786)">
		</image>
	</g>
</g>
<g>
	<text transform="matrix(1 0 0 1.0001 270.0286 992.8452)" class="st5 st16 st4">Rhinopithecus roxellana</text>
</g>
<g>
	<text transform="matrix(1 0 0 1.0001 324.9231 525.8452)" class="st5 st16 st4">Rhinopithecus bieti</text>
</g>
<text transform="matrix(1 0 0 1 90.2233 77.225)" class="st17 st6 st18">Species only found in China</text>
<g>
	<text transform="matrix(1 0 0 1.0001 265.5266 2430.2871)" class="st5 st16 st4">Rhinopithecus avunculus</text>
</g>
<g>
	<text transform="matrix(1 0 0 1.0001 290.0364 1959.0684)" class="st5 st16 st4">Rhinopithecus strykeri</text>
</g>
<polygon class="st19" points="63.18,47.23 68.25,57.5 79.58,59.15 71.38,67.14 73.31,78.43 63.18,73.1 53.04,78.43 54.98,67.14 
	46.78,59.15 58.11,57.5 "/>
<g>
	<text transform="matrix(1 0 0 1.0001 291.0393 1495.0776)" class="st5 st16 st4">Rhinopithecus brelichi</text>
</g>
<text transform="matrix(1 0 0 1.0001 54.1897 1175.7339)" class="st5 st10 st11">Guizhou</text>
<g>
	<g>
		<polygon class="st19" points="218.59,1149.23 223.66,1159.5 234.99,1161.15 226.79,1169.14 228.73,1180.43 218.59,1175.1 
			208.45,1180.43 210.39,1169.14 202.19,1161.15 213.52,1159.5 		"/>
		<polygon class="st19" points="218.59,1149.23 223.66,1159.5 234.99,1161.15 226.79,1169.14 228.73,1180.43 218.59,1175.1 
			208.45,1180.43 210.39,1169.14 202.19,1161.15 213.52,1159.5 		"/>
	</g>
</g>
<text transform="matrix(1 0 0 1.0001 54.1897 706.4194)" class="st5 st10 st11">Sichuan</text>
<g>
	<g>
		<polygon class="st19" points="218.59,679.23 223.66,689.5 234.99,691.15 226.79,699.14 228.73,710.43 218.59,705.1 208.45,710.43 
			210.39,699.14 202.19,691.15 213.52,689.5 		"/>
		<polygon class="st19" points="218.59,679.23 223.66,689.5 234.99,691.15 226.79,699.14 228.73,710.43 218.59,705.1 208.45,710.43 
			210.39,699.14 202.19,691.15 213.52,689.5 		"/>
	</g>
</g>
<g>
	<text transform="matrix(1 0 0 1.0001 54.1897 220.4917)" class="st5 st10 st11">Yunnan</text>
</g>
<g>
	<g>
		<polygon class="st19" points="208.59,193.23 213.66,203.5 224.99,205.15 216.79,213.14 218.73,224.43 208.59,219.1 198.45,224.43 
			200.39,213.14 192.19,205.15 203.52,203.5 		"/>
		<polygon class="st19" points="208.59,193.23 213.66,203.5 224.99,205.15 216.79,213.14 218.73,224.43 208.59,219.1 198.45,224.43 
			200.39,213.14 192.19,205.15 203.52,203.5 		"/>
	</g>
</g>
<g>
	<rect x="66.04" y="2496.58" class="st20" width="418.89" height="83.53"/>
	<text transform="matrix(1 0 0 1.0001 66.042 2520.5771)"><tspan x="0" y="0" class="st5 st6 st18">Their tails are usually as long </tspan><tspan x="0" y="38.39" class="st5 st6 st18">as the rest of the body.</tspan></text>
</g>
<text transform="matrix(1 0 0 1.0001 54.1897 2179.98)" class="st9 st10 st11">Tonkin</text>
</svg>
