<?xml version="1.0" encoding="utf-8"?>
<!-- Generator: Adobe Illustrator 27.0.0, SVG Export Plug-In . SVG Version: 6.00 Build 0)  -->
<svg version="1.1" id="Layer_1" xmlns="http://www.w3.org/2000/svg" xmlns:xlink="http://www.w3.org/1999/xlink" x="0px" y="0px"
	 viewBox="0 0 800 311" style="enable-background:new 0 0 800 311;" xml:space="preserve">
<style type="text/css">
	@import url('https://fonts.googleapis.com/css?family=Roboto:300,400,700');
	.st0{fill:#1D1D1B;}
	.st1{font-family:'Roboto';font-weight: 700;}
	.st2{font-size:32px;}
	.st3{font-size:24px;}
	.st4{fill:#AEA493;}
	.st5{fill:#E84D1F;}
	.st6{fill:#FFFFFF;}
	.st7{font-family:'Roboto';font-weight: 300;}
	.st8{font-size:19.8122px;}
	.st9{fill:none;stroke:#1D1D1B;stroke-width:1.651;stroke-miterlimit:10;}
</style>
<g>
	<g>
		<text transform="matrix(1 0 0 1 262.3005 65.8413)"><tspan x="0" y="0" class="st0 st1 st2">EXTINCTION RISK</tspan><tspan x="-177.9" y="34.82" class="st0 st1 st3">International Union for Conservation of Nature classification</tspan></text>
	</g>
	<path class="st4" d="M214.66,190.3h-45.79c-1.8,0-3.25-1.46-3.25-3.25v-34.7c0-1.8,1.46-3.25,3.25-3.25h45.79
		c1.8,0,3.25,1.46,3.25,3.25v34.7C217.91,188.84,216.45,190.3,214.66,190.3z"/>
	<path class="st4" d="M281.17,190.3h-45.79c-1.8,0-3.25-1.46-3.25-3.25v-34.7c0-1.8,1.46-3.25,3.25-3.25h45.79
		c1.8,0,3.25,1.46,3.25,3.25v34.7C284.43,188.84,282.97,190.3,281.17,190.3z"/>
	<path class="st4" d="M347.69,190.3H301.9c-1.8,0-3.25-1.46-3.25-3.25v-34.7c0-1.8,1.46-3.25,3.25-3.25h45.79
		c1.8,0,3.25,1.46,3.25,3.25v34.7C350.94,188.84,349.49,190.3,347.69,190.3z"/>
	<path class="st5" d="M414.21,190.3h-45.79c-1.8,0-3.25-1.46-3.25-3.25v-34.7c0-1.8,1.46-3.25,3.25-3.25h45.79
		c1.8,0,3.25,1.46,3.25,3.25v34.7C417.46,188.84,416,190.3,414.21,190.3z"/>
	<path class="st4" d="M480.72,190.3h-45.79c-1.8,0-3.25-1.46-3.25-3.25v-34.7c0-1.8,1.46-3.25,3.25-3.25h45.79
		c1.8,0,3.25,1.46,3.25,3.25v34.7C483.97,188.84,482.52,190.3,480.72,190.3z"/>
	<path class="st4" d="M547.24,190.3h-45.79c-1.8,0-3.25-1.46-3.25-3.25v-34.7c0-1.8,1.46-3.25,3.25-3.25h45.79
		c1.8,0,3.25,1.46,3.25,3.25v34.7C550.49,188.84,549.03,190.3,547.24,190.3z"/>
	<path class="st4" d="M613.75,190.3h-45.79c-1.8,0-3.25-1.46-3.25-3.25v-34.7c0-1.8,1.46-3.25,3.25-3.25h45.79
		c1.8,0,3.25,1.46,3.25,3.25v34.7C617.01,188.84,615.55,190.3,613.75,190.3z"/>
	<text transform="matrix(1 0 0 1 578.1316 180.7612)" class="st6 st1 st3">EX</text>
	<text transform="matrix(1 0 0 1 505.5828 180.7612)" class="st6 st1 st3">EW</text>
	<text transform="matrix(1 0 0 1 441.0398 180.7612)" class="st6 st1 st3">CR</text>
	<g>
		<text transform="matrix(1 0 0 1 375.0515 180.7612)" class="st6 st1 st3">EN</text>
	</g>
	<g>
		<text transform="matrix(1 0 0 1 308.2507 180.7612)" class="st6 st1 st3">VU</text>
	</g>
	<text transform="matrix(1 0 0 1 241.821 180.7612)" class="st6 st1 st3">NT</text>
	<text transform="matrix(1 0 0 1 177.0925 180.7612)" class="st6 st1 st3">LC</text>
	<text transform="matrix(1 0 0 1 487.4871 133.5132)" class="st0 st7 st8">Most risk</text>
	<g>
		<g>
			<line class="st9" x1="571.36" y1="127.64" x2="602.4" y2="127.64"/>
			<g>
				<path class="st0" d="M591.12,135.56c-0.25-0.38-0.13-0.89,0.25-1.14l10.65-6.78l-10.65-6.78c-0.39-0.25-0.5-0.76-0.25-1.14
					s0.76-0.49,1.14-0.25l11.75,7.48c0.24,0.15,0.38,0.41,0.38,0.7s-0.15,0.54-0.38,0.7l-11.75,7.48c-0.14,0.09-0.29,0.13-0.44,0.13
					C591.54,135.95,591.27,135.81,591.12,135.56z"/>
			</g>
		</g>
	</g>
	<text transform="matrix(1 0 0 1 211.1501 133.5132)" class="st0 st7 st8">Less risk</text>
	<text transform="matrix(1 0 0 1 165.613 215.2241)" class="st0 st7 st3">Least concern</text>
	<text transform="matrix(1 0 0 1 548.2576 215.2241)" class="st0 st7 st3">Extinct</text>
	<g>
		<g>
			<line class="st9" x1="203.82" y1="127.64" x2="172.78" y2="127.64"/>
			<g>
				<path class="st0" d="M184.06,119.72c0.25,0.38,0.13,0.9-0.25,1.14l-10.65,6.78l10.65,6.78c0.39,0.25,0.5,0.76,0.25,1.14
					s-0.76,0.5-1.14,0.25l-11.75-7.48c-0.24-0.15-0.38-0.41-0.38-0.7s0.15-0.54,0.38-0.7l11.75-7.48c0.14-0.09,0.29-0.13,0.44-0.13
					C183.64,119.33,183.91,119.47,184.06,119.72z"/>
			</g>
		</g>
	</g>
	<g>
		<g>
			<text transform="matrix(1 0 0 1 330.2966 240.5913)" class="st0 st7 st3">Endangered</text>
		</g>
		<polygon class="st0" points="407.82,214.98 379.79,214.98 393.8,200.97 		"/>
	</g>
</g>
</svg>
