<?xml version="1.0" encoding="utf-8"?>
<!-- Generator: Adobe Illustrator 27.0.0, SVG Export Plug-In . SVG Version: 6.00 Build 0)  -->
<svg version="1.1" id="Layer_1" xmlns="http://www.w3.org/2000/svg" xmlns:xlink="http://www.w3.org/1999/xlink" x="0px" y="0px"
	 viewBox="0 0 800 1361" style="enable-background:new 0 0 800 1361;" xml:space="preserve">
<style type="text/css">
	@import url('https://fonts.googleapis.com/css?family=Roboto:300,400,700');
	.st0{fill:#1D1D1B;}
	.st1{fill:#E84D1F;}
	.st2{font-family:'Roboto';font-weight: 300;}
	.st3{font-size:48px;}
	.st4{font-family:'Roboto';font-weight: 700;}
	.st5{font-size:34px;}
	.st6{fill:#DDDBCC;}
</style>
<path class="st0" d="M813.78,633.88"/>
<g>
	<text transform="matrix(1 0 0 1.0001 493.5911 1052.3174)" class="st1 st2 st3">3,800</text>
</g>
<g>
	<text transform="matrix(1 0 0 1.0001 368.5295 1052.3174)" class="st1 st4 st5">Yunnan</text>
</g>
<text transform="matrix(1 0 0 1.0001 279.8313 380.915)" class="st0 st2 st3">25,000</text>
<text transform="matrix(1 0 0 1.0001 128.303 380.915)" class="st0 st4 st5">Sichuan</text>
<text transform="matrix(1 0 0 1.0001 592.3157 821.0986)" class="st0 st2 st3">800</text>
<text transform="matrix(1 0 0 1.0001 449.0686 821.0986)" class="st0 st4 st5">Guizhou</text>
<text transform="matrix(1 0 0 1.0001 594.0911 1252.2354)" class="st0 st2 st3">&lt;200</text>
<text transform="matrix(1 0 0 1.0001 426.3069 1252.2354)" class="st0 st4 st5">Myanmar</text>
<g>
	<g>
		<g>
			<path class="st1" d="M773.06,900.88c-67.89,0-122.93,55.04-122.93,122.93l0,0h122.93H650.13c0,67.89,55.04,122.93,122.93,122.93"
				/>
			<path class="st6" d="M773.06,65.32c-174.14,0-315.31,141.17-315.31,315.31l0,0h315.31H457.75
				c0,174.14,141.17,315.31,315.31,315.31"/>
			<path class="st6" d="M773.06,747.08c-31.15,0-56.4,25.25-56.4,56.4l0,0h56.4h-56.4c0,31.15,25.25,56.4,56.4,56.4"/>
			<path class="st6" d="M773.06,1209.68c-15.58,0-28.2,12.63-28.2,28.2l0,0h28.2h-28.2c0,15.58,12.63,28.2,28.2,28.2"/>
		</g>
	</g>
</g>
</svg>
