<?xml version="1.0" encoding="utf-8"?>
<!-- Generator: Adobe Illustrator 27.0.0, SVG Export Plug-In . SVG Version: 6.00 Build 0)  -->
<svg version="1.1" id="Layer_1" xmlns="http://www.w3.org/2000/svg" xmlns:xlink="http://www.w3.org/1999/xlink" x="0px" y="0px"
	 viewBox="0 0 800 1517.04" style="enable-background:new 0 0 800 1517.04;" xml:space="preserve">
<style type="text/css">
	@import url('https://fonts.googleapis.com/css?family=Roboto:300,400,700');
	.st0{fill:#008EC4;}
	.st1{fill:#1D1D1B;}
	.st2{font-family:'Roboto';font-weight: 300;}
	.st3{font-size:28px;}
	.st4{fill:#E84D1F;}
	.st5{fill:#FFFFFF;stroke:#008EC4;stroke-width:1.5075;stroke-miterlimit:10;}
	.st6{fill:none;}
	.st7{font-size:29px;}
	.st8{font-size:27.0479px;}
	.st9{fill:none;stroke:#868686;stroke-width:1.2;stroke-miterlimit:10;}
	.st10{fill:#868686;}
</style>
<image style="overflow:visible;" width="799" height="1479" xlink:href="E8233CD11D4F28E8.png"  transform="matrix(1 0 0 1 -1.5 38.0436)">
</image>
<circle class="st0" cx="742.08" cy="94.39" r="18.71"/>
<g>
	<text transform="matrix(1 0 0 1.0001 639.2073 104.3043)" class="st1 st2 st3">Male</text>
</g>
<circle class="st4" cx="353.12" cy="194.05" r="11.22"/>
<circle cx="584.12" cy="264.05" r="11.22"/>
<g>
	<text transform="matrix(1 0 0 1.0001 261.4102 168.6774)" class="st1 st2 st3">Female</text>
</g>
<g>
	<text transform="matrix(1 0 0 1.0001 559.4805 237.3258)" class="st1 st2 st3">Infant</text>
</g>
<circle class="st5" cx="116.49" cy="266.16" r="11.22"/>
<g>
	<text transform="matrix(1 0 0 1.0001 46.6074 237.3844)" class="st1 st2 st3">Juvenile</text>
</g>
<circle class="st4" cx="488.8" cy="116.42" r="11.22"/>
<g>
	<text transform="matrix(1 0 0 1.0001 406.2983 92.8571)" class="st1 st2 st3">Female</text>
</g>
<g>
	<rect x="462.48" y="1359.27" class="st6" width="217.02" height="108.77"/>
	<text transform="matrix(1 0 0 1.0001 462.4792 1381.025)"><tspan x="0" y="0" class="st1 st2 st7">Nondominant </tspan><tspan x="0" y="34.8" class="st1 st2 st7">males may form </tspan><tspan x="0" y="69.59" class="st1 st2 st7">all-male units.</tspan></text>
</g>
<g>
	<text transform="matrix(1 0 0 1.0001 299.1736 618.5914)" class="st1 st2 st8">One male</text>
</g>
<g>
	<text transform="matrix(1 0 0 1.0001 437.4792 709.7437)" class="st1 st2 st8">Several females</text>
</g>
<g>
	<g>
		<polyline class="st9" points="421.05,691.94 393.78,691.94 393.78,715.64 		"/>
		<g>
			<polygon class="st10" points="388.87,711.66 389.75,710.85 393.77,715.18 397.8,710.85 398.68,711.66 393.77,716.94 			"/>
		</g>
	</g>
</g>
<g>
	<g>
		<line class="st9" x1="325.59" y1="635.66" x2="325.59" y2="677.33"/>
		<g>
			<polygon class="st10" points="320.68,673.35 321.56,672.53 325.59,676.87 329.61,672.53 330.49,673.35 325.59,678.63 			"/>
		</g>
	</g>
</g>
<g>
	<g>
		<polyline class="st9" points="406.34,857.36 370.19,857.36 370.19,842.1 		"/>
		<g>
			<polygon class="st10" points="375.1,846.08 374.22,846.89 370.19,842.56 366.17,846.89 365.29,846.08 370.19,840.8 			"/>
		</g>
	</g>
</g>
<g>
	<g>
		<polyline class="st9" points="444.34,1370.36 408.19,1370.36 408.19,1355.1 		"/>
		<g>
			<polygon class="st10" points="413.1,1359.08 412.22,1359.89 408.19,1355.56 404.17,1359.89 403.29,1359.08 408.19,1353.8 			"/>
		</g>
	</g>
</g>
</svg>
