<?xml version="1.0" encoding="utf-8"?>
<!-- Generator: Adobe Illustrator 27.0.0, SVG Export Plug-In . SVG Version: 6.00 Build 0)  -->
<svg version="1.1" id="Layer_1" xmlns="http://www.w3.org/2000/svg" xmlns:xlink="http://www.w3.org/1999/xlink" x="0px" y="0px"
	 viewBox="0 0 1920 1723.15" style="enable-background:new 0 0 1920 1723.15;" xml:space="preserve">
<style type="text/css">
	.st0{fill:none;}
	.st1{enable-background:new    ;}
	.st2{fill:#1D1D1B;}
	.st3{fill:#008EC4;}
	.st4{fill:#E84D1F;}
	.st5{fill:#FFFFFF;stroke:#008EC4;stroke-width:1.5075;stroke-miterlimit:10;}
	.st6{fill:none;stroke:#868686;stroke-width:1.2;stroke-miterlimit:10;}
	.st7{fill:#868686;}
</style>
<image style="overflow:visible;enable-background:new    ;" width="1672" height="1685" xlink:href="E7D7795E92CE325B.png"  transform="matrix(0.9994 0 0 0.9994 136.0539 34.1727)">
</image>
<rect x="93.94" y="824.44" class="st0" width="241.87" height="156.81"/>
<g class="st1">
	<path class="st2" d="M113.75,848.44h-1.92l-13.08-19.47v19.47h-1.94v-22.75h1.94l13.09,19.49v-19.49h1.91V848.44z"/>
	<path class="st2" d="M118.07,839.74c0-1.62,0.31-3.09,0.95-4.39c0.63-1.3,1.52-2.32,2.67-3.04c1.15-0.72,2.46-1.09,3.91-1.09
		c2.25,0,4.07,0.79,5.47,2.37c1.4,1.58,2.09,3.67,2.09,6.27v0.39c0,1.64-0.32,3.11-0.95,4.42c-0.63,1.31-1.52,2.32-2.66,3.02
		c-1.15,0.71-2.45,1.06-3.92,1.06c-2.24,0-4.06-0.79-5.46-2.37c-1.4-1.58-2.1-3.67-2.1-6.27V839.74z M119.94,840.25
		c0,2.02,0.52,3.68,1.57,4.98s2.42,1.95,4.12,1.95c1.69,0,3.05-0.65,4.1-1.95s1.57-3.01,1.57-5.13v-0.36c0-1.29-0.24-2.47-0.72-3.55
		c-0.48-1.07-1.15-1.9-2.02-2.49c-0.86-0.59-1.85-0.88-2.97-0.88c-1.67,0-3.03,0.65-4.08,1.96c-1.05,1.31-1.58,3.02-1.58,5.13
		V840.25z"/>
	<path class="st2" d="M138.8,831.53l0.06,2.89c0.64-1.04,1.43-1.84,2.38-2.38c0.95-0.55,1.99-0.82,3.14-0.82
		c1.81,0,3.16,0.51,4.05,1.53c0.89,1.02,1.33,2.55,1.34,4.59v11.09h-1.86v-11.11c-0.01-1.51-0.33-2.64-0.96-3.38
		c-0.63-0.74-1.64-1.11-3.02-1.11c-1.16,0-2.18,0.36-3.07,1.09c-0.89,0.72-1.55,1.7-1.98,2.93v11.58h-1.86v-16.91H138.8z"/>
	<path class="st2" d="M153.85,839.83c0-2.62,0.59-4.72,1.76-6.27c1.17-1.56,2.76-2.34,4.77-2.34c2.28,0,4.02,0.9,5.22,2.7v-9.49
		h1.86v24h-1.75l-0.08-2.25c-1.2,1.71-2.96,2.56-5.28,2.56c-1.95,0-3.52-0.78-4.71-2.35c-1.19-1.57-1.79-3.69-1.79-6.35V839.83z
		 M155.74,840.16c0,2.16,0.43,3.86,1.3,5.1c0.86,1.25,2.08,1.87,3.66,1.87c2.3,0,3.94-1.02,4.91-3.05v-7.94
		c-0.97-2.2-2.59-3.3-4.88-3.3c-1.57,0-2.8,0.62-3.67,1.85C156.18,835.93,155.74,837.75,155.74,840.16z"/>
	<path class="st2" d="M171.35,839.74c0-1.62,0.31-3.09,0.95-4.39c0.63-1.3,1.52-2.32,2.67-3.04c1.15-0.72,2.46-1.09,3.91-1.09
		c2.25,0,4.07,0.79,5.47,2.37c1.4,1.58,2.09,3.67,2.09,6.27v0.39c0,1.64-0.32,3.11-0.95,4.42c-0.63,1.31-1.52,2.32-2.66,3.02
		c-1.15,0.71-2.45,1.06-3.92,1.06c-2.24,0-4.06-0.79-5.46-2.37c-1.4-1.58-2.1-3.67-2.1-6.27V839.74z M173.22,840.25
		c0,2.02,0.52,3.68,1.57,4.98s2.42,1.95,4.12,1.95c1.69,0,3.05-0.65,4.1-1.95s1.57-3.01,1.57-5.13v-0.36c0-1.29-0.24-2.47-0.72-3.55
		c-0.48-1.07-1.15-1.9-2.02-2.49c-0.86-0.59-1.85-0.88-2.97-0.88c-1.67,0-3.03,0.65-4.08,1.96c-1.05,1.31-1.58,3.02-1.58,5.13
		V840.25z"/>
	<path class="st2" d="M192,831.53l0.06,2.75c0.62-1.02,1.41-1.79,2.34-2.3c0.94-0.51,1.98-0.77,3.12-0.77
		c2.67,0,4.36,1.09,5.08,3.28c0.6-1.05,1.41-1.86,2.42-2.43c1.01-0.57,2.12-0.85,3.34-0.85c3.62,0,5.47,1.98,5.55,5.94v11.28h-1.88
		V837.3c-0.01-1.51-0.34-2.63-0.98-3.36c-0.64-0.73-1.69-1.09-3.13-1.09c-1.34,0.02-2.48,0.46-3.41,1.31
		c-0.93,0.85-1.44,1.88-1.55,3.1v11.19h-1.88v-11.28c-0.01-1.45-0.35-2.53-1.02-3.24c-0.67-0.71-1.71-1.07-3.1-1.07
		c-1.18,0-2.19,0.34-3.03,1.01c-0.84,0.67-1.47,1.67-1.88,2.99v11.59h-1.88v-16.91H192z"/>
	<path class="st2" d="M218.55,826.65c0-0.35,0.11-0.65,0.34-0.89c0.23-0.24,0.54-0.36,0.94-0.36c0.4,0,0.71,0.12,0.95,0.36
		s0.35,0.54,0.35,0.89c0,0.35-0.12,0.65-0.35,0.88s-0.55,0.36-0.95,0.36c-0.4,0-0.71-0.12-0.94-0.36
		C218.67,827.3,218.55,827,218.55,826.65z M220.75,848.44h-1.88v-16.91h1.88V848.44z"/>
	<path class="st2" d="M227.61,831.53l0.06,2.89c0.64-1.04,1.43-1.84,2.38-2.38c0.95-0.55,1.99-0.82,3.14-0.82
		c1.81,0,3.16,0.51,4.05,1.53c0.89,1.02,1.33,2.55,1.34,4.59v11.09h-1.86v-11.11c-0.01-1.51-0.33-2.64-0.96-3.38
		c-0.63-0.74-1.64-1.11-3.02-1.11c-1.16,0-2.18,0.36-3.07,1.09c-0.89,0.72-1.55,1.7-1.98,2.93v11.58h-1.86v-16.91H227.61z"/>
	<path class="st2" d="M254.08,848.44c-0.19-0.53-0.31-1.32-0.36-2.36c-0.66,0.85-1.49,1.51-2.51,1.98s-2.09,0.7-3.23,0.7
		c-1.62,0-2.94-0.45-3.95-1.36c-1.01-0.91-1.51-2.05-1.51-3.44c0-1.65,0.68-2.95,2.05-3.91c1.37-0.96,3.28-1.44,5.73-1.44h3.39
		v-1.92c0-1.21-0.37-2.16-1.12-2.85c-0.75-0.69-1.83-1.04-3.26-1.04c-1.3,0-2.38,0.33-3.23,1c-0.85,0.67-1.28,1.47-1.28,2.41
		l-1.88-0.02c0-1.34,0.62-2.51,1.88-3.49s2.79-1.48,4.61-1.48c1.89,0,3.37,0.47,4.46,1.41c1.09,0.94,1.65,2.26,1.68,3.95v8
		c0,1.64,0.17,2.86,0.52,3.67v0.19H254.08z M248.21,847.1c1.25,0,2.37-0.3,3.35-0.91s1.7-1.41,2.15-2.42v-3.72h-3.34
		c-1.86,0.02-3.32,0.36-4.38,1.02c-1.05,0.66-1.58,1.57-1.58,2.73c0,0.95,0.35,1.73,1.05,2.36S247.08,847.1,248.21,847.1z"/>
	<path class="st2" d="M262.33,831.53l0.06,2.89c0.64-1.04,1.43-1.84,2.38-2.38c0.95-0.55,1.99-0.82,3.14-0.82
		c1.81,0,3.16,0.51,4.05,1.53c0.89,1.02,1.33,2.55,1.34,4.59v11.09h-1.86v-11.11c-0.01-1.51-0.33-2.64-0.96-3.38
		c-0.63-0.74-1.64-1.11-3.02-1.11c-1.16,0-2.18,0.36-3.07,1.09c-0.89,0.72-1.55,1.7-1.98,2.93v11.58h-1.86v-16.91H262.33z"/>
	<path class="st2" d="M281.04,827.21v4.33h3.5v1.53h-3.5v11.28c0,0.94,0.17,1.64,0.51,2.1c0.34,0.46,0.9,0.69,1.7,0.69
		c0.31,0,0.82-0.05,1.52-0.16l0.08,1.52c-0.49,0.17-1.16,0.26-2,0.26c-1.28,0-2.21-0.37-2.8-1.12c-0.58-0.75-0.88-1.84-0.88-3.29
		v-11.28h-3.11v-1.53h3.11v-4.33H281.04z"/>
</g>
<g class="st1">
	<path class="st2" d="M98.08,869.93l0.06,2.75c0.62-1.02,1.41-1.79,2.34-2.3c0.94-0.51,1.98-0.77,3.12-0.77
		c2.67,0,4.36,1.09,5.08,3.28c0.6-1.05,1.41-1.86,2.42-2.43c1.01-0.57,2.12-0.85,3.34-0.85c3.62,0,5.47,1.98,5.55,5.94v11.28h-1.88
		v-11.14c-0.01-1.51-0.34-2.63-0.98-3.36c-0.64-0.73-1.69-1.09-3.13-1.09c-1.34,0.02-2.48,0.46-3.41,1.31
		c-0.93,0.85-1.44,1.88-1.55,3.1v11.19h-1.88v-11.28c-0.01-1.45-0.35-2.53-1.02-3.24c-0.67-0.71-1.71-1.07-3.1-1.07
		c-1.18,0-2.19,0.34-3.03,1.01c-0.84,0.67-1.47,1.67-1.88,2.99v11.59h-1.88v-16.91H98.08z"/>
	<path class="st2" d="M135.41,886.83c-0.19-0.53-0.31-1.32-0.36-2.36c-0.66,0.85-1.49,1.51-2.51,1.98s-2.09,0.7-3.23,0.7
		c-1.62,0-2.94-0.45-3.95-1.36c-1.01-0.91-1.51-2.05-1.51-3.44c0-1.65,0.68-2.95,2.05-3.91c1.37-0.96,3.28-1.44,5.73-1.44h3.39
		v-1.92c0-1.21-0.37-2.16-1.12-2.85c-0.75-0.69-1.83-1.04-3.26-1.04c-1.3,0-2.38,0.33-3.23,1c-0.85,0.67-1.28,1.47-1.28,2.41
		l-1.88-0.02c0-1.34,0.62-2.51,1.88-3.49s2.79-1.48,4.61-1.48c1.89,0,3.37,0.47,4.46,1.41c1.09,0.94,1.65,2.26,1.68,3.95v8
		c0,1.64,0.17,2.86,0.52,3.67v0.19H135.41z M129.54,885.49c1.25,0,2.37-0.3,3.35-0.91s1.7-1.41,2.15-2.42v-3.72h-3.34
		c-1.86,0.02-3.32,0.36-4.38,1.02c-1.05,0.66-1.58,1.57-1.58,2.73c0,0.95,0.35,1.73,1.05,2.36S128.41,885.49,129.54,885.49z"/>
	<path class="st2" d="M143.97,886.83h-1.88v-24h1.88V886.83z"/>
	<path class="st2" d="M155.6,887.15c-1.44,0-2.74-0.35-3.9-1.06c-1.16-0.71-2.07-1.7-2.71-2.96c-0.65-1.27-0.97-2.69-0.97-4.26
		v-0.67c0-1.62,0.31-3.09,0.95-4.39c0.63-1.3,1.51-2.33,2.63-3.07c1.12-0.74,2.34-1.12,3.66-1.12c2.05,0,3.68,0.7,4.88,2.1
		c1.2,1.4,1.8,3.32,1.8,5.74v1.05h-12.06v0.36c0,1.92,0.55,3.51,1.65,4.79c1.1,1.28,2.48,1.91,4.15,1.91c1,0,1.88-0.18,2.65-0.55
		s1.46-0.95,2.09-1.75l1.17,0.89C160.21,886.15,158.21,887.15,155.6,887.15z M155.25,871.21c-1.41,0-2.59,0.52-3.55,1.55
		c-0.96,1.03-1.55,2.42-1.76,4.16h10.14v-0.2c-0.05-1.62-0.52-2.95-1.39-3.97C157.82,871.72,156.67,871.21,155.25,871.21z"/>
	<path class="st2" d="M175.71,882.54c0-0.93-0.37-1.67-1.12-2.24c-0.75-0.56-1.87-1-3.37-1.32c-1.5-0.32-2.66-0.68-3.49-1.09
		c-0.83-0.41-1.44-0.91-1.84-1.51c-0.4-0.59-0.6-1.31-0.6-2.16c0-1.33,0.56-2.44,1.67-3.31c1.11-0.87,2.54-1.3,4.28-1.3
		c1.89,0,3.4,0.47,4.54,1.4c1.14,0.93,1.71,2.15,1.71,3.65h-1.88c0-0.99-0.41-1.81-1.24-2.47c-0.83-0.66-1.87-0.99-3.13-0.99
		c-1.23,0-2.22,0.27-2.96,0.82c-0.75,0.55-1.12,1.26-1.12,2.13c0,0.84,0.31,1.5,0.93,1.96c0.62,0.46,1.75,0.89,3.39,1.27
		s2.87,0.8,3.69,1.23c0.82,0.44,1.42,0.96,1.82,1.58c0.4,0.62,0.59,1.36,0.59,2.24c0,1.43-0.58,2.57-1.73,3.42
		c-1.15,0.85-2.65,1.28-4.51,1.28c-1.97,0-3.57-0.48-4.79-1.43c-1.22-0.95-1.84-2.16-1.84-3.62h1.88c0.07,1.09,0.53,1.95,1.38,2.55
		c0.85,0.61,1.97,0.91,3.37,0.91c1.3,0,2.35-0.29,3.16-0.86C175.31,884.14,175.71,883.41,175.71,882.54z"/>
	<path class="st2" d="M191.27,869.93l0.06,2.75c0.62-1.02,1.41-1.79,2.34-2.3c0.94-0.51,1.98-0.77,3.12-0.77
		c2.67,0,4.36,1.09,5.08,3.28c0.6-1.05,1.41-1.86,2.42-2.43c1.01-0.57,2.12-0.85,3.34-0.85c3.62,0,5.47,1.98,5.55,5.94v11.28h-1.88
		v-11.14c-0.01-1.51-0.34-2.63-0.98-3.36c-0.64-0.73-1.69-1.09-3.13-1.09c-1.34,0.02-2.48,0.46-3.41,1.31
		c-0.93,0.85-1.44,1.88-1.55,3.1v11.19h-1.88v-11.28c-0.01-1.45-0.35-2.53-1.02-3.24c-0.67-0.71-1.71-1.07-3.1-1.07
		c-1.18,0-2.19,0.34-3.03,1.01c-0.84,0.67-1.47,1.67-1.88,2.99v11.59h-1.88v-16.91H191.27z"/>
	<path class="st2" d="M228.6,886.83c-0.19-0.53-0.31-1.32-0.36-2.36c-0.66,0.85-1.49,1.51-2.51,1.98s-2.09,0.7-3.23,0.7
		c-1.62,0-2.94-0.45-3.95-1.36c-1.01-0.91-1.51-2.05-1.51-3.44c0-1.65,0.68-2.95,2.05-3.91c1.37-0.96,3.28-1.44,5.73-1.44h3.39
		v-1.92c0-1.21-0.37-2.16-1.12-2.85c-0.75-0.69-1.83-1.04-3.26-1.04c-1.3,0-2.38,0.33-3.23,1c-0.85,0.67-1.28,1.47-1.28,2.41
		l-1.88-0.02c0-1.34,0.62-2.51,1.88-3.49s2.79-1.48,4.61-1.48c1.89,0,3.37,0.47,4.46,1.41c1.09,0.94,1.65,2.26,1.68,3.95v8
		c0,1.64,0.17,2.86,0.52,3.67v0.19H228.6z M222.72,885.49c1.25,0,2.37-0.3,3.35-0.91s1.7-1.41,2.15-2.42v-3.72h-3.34
		c-1.86,0.02-3.32,0.36-4.38,1.02c-1.05,0.66-1.58,1.57-1.58,2.73c0,0.95,0.35,1.73,1.05,2.36S221.6,885.49,222.72,885.49z"/>
	<path class="st2" d="M240.43,884.15l4.94-14.22h2.02l-7.22,19.78l-0.38,0.88c-0.93,2.05-2.36,3.08-4.3,3.08
		c-0.45,0-0.93-0.07-1.44-0.22l-0.02-1.55l0.97,0.09c0.92,0,1.66-0.23,2.23-0.68c0.57-0.45,1.05-1.23,1.45-2.34l0.83-2.28
		l-6.38-16.77h2.05L240.43,884.15z"/>
	<path class="st2" d="M259.4,886.83v-15.38h-2.8v-1.53h2.8v-2.05c0-1.73,0.44-3.06,1.32-3.98c0.88-0.93,2.11-1.39,3.68-1.39
		c0.71,0,1.37,0.09,1.98,0.26l-0.14,1.55c-0.52-0.12-1.09-0.19-1.7-0.19c-1.03,0-1.83,0.32-2.41,0.96
		c-0.57,0.64-0.86,1.55-0.86,2.73v2.1h4.03v1.53h-4.03v15.38H259.4z"/>
	<path class="st2" d="M267.61,878.13c0-1.62,0.31-3.09,0.95-4.39c0.63-1.3,1.52-2.32,2.67-3.04c1.15-0.72,2.46-1.09,3.91-1.09
		c2.25,0,4.07,0.79,5.47,2.37c1.4,1.58,2.09,3.67,2.09,6.27v0.39c0,1.64-0.32,3.11-0.95,4.42c-0.63,1.31-1.52,2.32-2.66,3.02
		c-1.15,0.71-2.45,1.06-3.92,1.06c-2.24,0-4.06-0.79-5.46-2.37c-1.4-1.58-2.1-3.67-2.1-6.27V878.13z M269.49,878.65
		c0,2.02,0.52,3.68,1.57,4.98s2.42,1.95,4.12,1.95c1.69,0,3.05-0.65,4.1-1.95s1.57-3.01,1.57-5.13v-0.36c0-1.29-0.24-2.47-0.72-3.55
		c-0.48-1.07-1.15-1.9-2.02-2.49c-0.86-0.59-1.85-0.88-2.97-0.88c-1.67,0-3.03,0.65-4.08,1.96c-1.05,1.31-1.58,3.02-1.58,5.13
		V878.65z"/>
	<path class="st2" d="M294.38,871.52c-0.4-0.07-0.82-0.11-1.27-0.11c-1.17,0-2.15,0.33-2.96,0.98c-0.81,0.65-1.38,1.6-1.73,2.84
		v11.61h-1.86v-16.91h1.83l0.03,2.69c0.99-2,2.58-3,4.77-3c0.52,0,0.93,0.07,1.23,0.2L294.38,871.52z"/>
	<path class="st2" d="M299.04,869.93l0.06,2.75c0.62-1.02,1.41-1.79,2.34-2.3c0.94-0.51,1.98-0.77,3.12-0.77
		c2.67,0,4.36,1.09,5.08,3.28c0.6-1.05,1.41-1.86,2.42-2.43c1.01-0.57,2.12-0.85,3.34-0.85c3.62,0,5.47,1.98,5.55,5.94v11.28h-1.88
		v-11.14c-0.01-1.51-0.34-2.63-0.98-3.36c-0.64-0.73-1.69-1.09-3.13-1.09c-1.34,0.02-2.48,0.46-3.41,1.31
		c-0.93,0.85-1.44,1.88-1.55,3.1v11.19h-1.88v-11.28c-0.01-1.45-0.35-2.53-1.02-3.24c-0.67-0.71-1.71-1.07-3.1-1.07
		c-1.18,0-2.19,0.34-3.03,1.01c-0.84,0.67-1.47,1.67-1.88,2.99v11.59h-1.88v-16.91H299.04z"/>
</g>
<g class="st1">
	<path class="st2" d="M107.05,925.24c-0.19-0.53-0.31-1.32-0.36-2.36c-0.66,0.85-1.49,1.51-2.51,1.98s-2.09,0.7-3.23,0.7
		c-1.62,0-2.94-0.45-3.95-1.36c-1.01-0.91-1.51-2.05-1.51-3.44c0-1.65,0.68-2.95,2.05-3.91c1.37-0.96,3.28-1.44,5.73-1.44h3.39
		v-1.92c0-1.21-0.37-2.16-1.12-2.85c-0.75-0.69-1.83-1.04-3.26-1.04c-1.3,0-2.38,0.33-3.23,1c-0.85,0.67-1.28,1.47-1.28,2.41
		l-1.88-0.02c0-1.34,0.62-2.51,1.88-3.49s2.79-1.48,4.61-1.48c1.89,0,3.37,0.47,4.46,1.41c1.09,0.94,1.65,2.26,1.68,3.95v8
		c0,1.64,0.17,2.86,0.52,3.67v0.19H107.05z M101.18,923.89c1.25,0,2.37-0.3,3.35-0.91s1.7-1.41,2.15-2.42v-3.72h-3.34
		c-1.86,0.02-3.32,0.36-4.38,1.02c-1.05,0.66-1.58,1.57-1.58,2.73c0,0.95,0.35,1.73,1.05,2.36S100.05,923.89,101.18,923.89z"/>
	<path class="st2" d="M115.61,925.24h-1.88v-24h1.88V925.24z"/>
	<path class="st2" d="M122.79,925.24h-1.88v-24h1.88V925.24z"/>
	<path class="st2" d="M133.68,915.99h-7.48v-1.58h7.48V915.99z"/>
	<path class="st2" d="M138.72,908.33l0.06,2.75c0.62-1.02,1.41-1.79,2.34-2.3c0.94-0.51,1.98-0.77,3.12-0.77
		c2.67,0,4.36,1.09,5.08,3.28c0.6-1.05,1.41-1.86,2.42-2.43c1.01-0.57,2.12-0.85,3.34-0.85c3.62,0,5.47,1.98,5.55,5.94v11.28h-1.88
		V914.1c-0.01-1.51-0.34-2.63-0.98-3.36c-0.64-0.73-1.69-1.09-3.13-1.09c-1.34,0.02-2.48,0.46-3.41,1.31
		c-0.93,0.85-1.44,1.88-1.55,3.1v11.19h-1.88v-11.28c-0.01-1.45-0.35-2.53-1.02-3.24c-0.67-0.71-1.71-1.07-3.1-1.07
		c-1.18,0-2.19,0.34-3.03,1.01c-0.84,0.67-1.47,1.67-1.88,2.99v11.59h-1.88v-16.91H138.72z"/>
	<path class="st2" d="M176.05,925.24c-0.19-0.53-0.31-1.32-0.36-2.36c-0.66,0.85-1.49,1.51-2.51,1.98s-2.09,0.7-3.23,0.7
		c-1.62,0-2.94-0.45-3.95-1.36c-1.01-0.91-1.51-2.05-1.51-3.44c0-1.65,0.68-2.95,2.05-3.91c1.37-0.96,3.28-1.44,5.73-1.44h3.39
		v-1.92c0-1.21-0.37-2.16-1.12-2.85c-0.75-0.69-1.83-1.04-3.26-1.04c-1.3,0-2.38,0.33-3.23,1c-0.85,0.67-1.28,1.47-1.28,2.41
		l-1.88-0.02c0-1.34,0.62-2.51,1.88-3.49s2.79-1.48,4.61-1.48c1.89,0,3.37,0.47,4.46,1.41c1.09,0.94,1.65,2.26,1.68,3.95v8
		c0,1.64,0.17,2.86,0.52,3.67v0.19H176.05z M170.18,923.89c1.25,0,2.37-0.3,3.35-0.91s1.7-1.41,2.15-2.42v-3.72h-3.34
		c-1.86,0.02-3.32,0.36-4.38,1.02c-1.05,0.66-1.58,1.57-1.58,2.73c0,0.95,0.35,1.73,1.05,2.36S169.05,923.89,170.18,923.89z"/>
	<path class="st2" d="M184.61,925.24h-1.88v-24h1.88V925.24z"/>
	<path class="st2" d="M196.24,925.55c-1.44,0-2.74-0.35-3.9-1.06c-1.16-0.71-2.07-1.7-2.71-2.96c-0.65-1.27-0.97-2.69-0.97-4.26
		v-0.67c0-1.62,0.31-3.09,0.95-4.39c0.63-1.3,1.51-2.33,2.63-3.07c1.12-0.74,2.34-1.12,3.66-1.12c2.05,0,3.68,0.7,4.88,2.1
		c1.2,1.4,1.8,3.32,1.8,5.74v1.05h-12.06v0.36c0,1.92,0.55,3.51,1.65,4.79c1.1,1.28,2.48,1.91,4.15,1.91c1,0,1.88-0.18,2.65-0.55
		s1.46-0.95,2.09-1.75l1.17,0.89C200.85,924.56,198.85,925.55,196.24,925.55z M195.9,909.61c-1.41,0-2.59,0.52-3.55,1.55
		c-0.96,1.03-1.55,2.42-1.76,4.16h10.14v-0.2c-0.05-1.62-0.52-2.95-1.39-3.97C198.46,910.12,197.31,909.61,195.9,909.61z"/>
	<path class="st2" d="M224.88,923.1c-1.12,1.64-2.92,2.45-5.39,2.45c-1.8,0-3.17-0.52-4.11-1.57s-1.42-2.6-1.44-4.65v-11h1.86v10.77
		c0,3.22,1.3,4.83,3.91,4.83c2.71,0,4.42-1.12,5.14-3.36v-12.24h1.88v16.91h-1.81L224.88,923.1z"/>
	<path class="st2" d="M233.36,908.33l0.06,2.89c0.64-1.04,1.43-1.84,2.38-2.38c0.95-0.55,1.99-0.82,3.14-0.82
		c1.81,0,3.16,0.51,4.05,1.53c0.89,1.02,1.33,2.55,1.34,4.59v11.09h-1.86v-11.11c-0.01-1.51-0.33-2.64-0.96-3.38
		c-0.63-0.74-1.64-1.11-3.02-1.11c-1.16,0-2.18,0.36-3.07,1.09c-0.89,0.72-1.55,1.7-1.98,2.93v11.58h-1.86v-16.91H233.36z"/>
	<path class="st2" d="M249.05,903.45c0-0.35,0.11-0.65,0.34-0.89c0.23-0.24,0.54-0.36,0.94-0.36c0.4,0,0.71,0.12,0.95,0.36
		s0.35,0.54,0.35,0.89c0,0.35-0.12,0.65-0.35,0.88s-0.55,0.36-0.95,0.36c-0.4,0-0.71-0.12-0.94-0.36
		C249.17,904.09,249.05,903.8,249.05,903.45z M251.25,925.24h-1.88v-16.91h1.88V925.24z"/>
	<path class="st2" d="M259.24,904v4.33h3.5v1.53h-3.5v11.28c0,0.94,0.17,1.64,0.51,2.1c0.34,0.46,0.9,0.69,1.7,0.69
		c0.31,0,0.82-0.05,1.52-0.16l0.08,1.52c-0.49,0.17-1.16,0.26-2,0.26c-1.28,0-2.21-0.37-2.8-1.12c-0.58-0.75-0.88-1.84-0.88-3.29
		v-11.28h-3.11v-1.53h3.11V904H259.24z"/>
	<path class="st2" d="M276.74,920.94c0-0.93-0.37-1.67-1.12-2.24c-0.75-0.56-1.87-1-3.37-1.32c-1.5-0.32-2.66-0.68-3.49-1.09
		c-0.83-0.41-1.44-0.91-1.84-1.51c-0.4-0.59-0.6-1.31-0.6-2.16c0-1.33,0.56-2.44,1.67-3.31c1.11-0.87,2.54-1.3,4.28-1.3
		c1.89,0,3.4,0.47,4.54,1.4c1.14,0.93,1.71,2.15,1.71,3.65h-1.88c0-0.99-0.41-1.81-1.24-2.47c-0.83-0.66-1.87-0.99-3.13-0.99
		c-1.23,0-2.22,0.27-2.96,0.82c-0.75,0.55-1.12,1.26-1.12,2.13c0,0.84,0.31,1.5,0.93,1.96c0.62,0.46,1.75,0.89,3.39,1.27
		s2.87,0.8,3.69,1.23c0.82,0.44,1.42,0.96,1.82,1.58c0.4,0.62,0.59,1.36,0.59,2.24c0,1.43-0.58,2.57-1.73,3.42
		c-1.15,0.85-2.65,1.28-4.51,1.28c-1.97,0-3.57-0.48-4.79-1.43c-1.22-0.95-1.84-2.16-1.84-3.62h1.88c0.07,1.09,0.53,1.95,1.38,2.55
		c0.85,0.61,1.97,0.91,3.37,0.91c1.3,0,2.35-0.29,3.16-0.86C276.34,922.54,276.74,921.82,276.74,920.94z"/>
	<path class="st2" d="M282.65,924.11c0-0.36,0.12-0.67,0.35-0.93s0.56-0.38,0.98-0.38c0.42,0,0.74,0.13,0.98,0.38
		c0.24,0.25,0.36,0.57,0.36,0.93s-0.12,0.66-0.36,0.9c-0.24,0.23-0.57,0.35-0.98,0.35c-0.42,0-0.74-0.12-0.98-0.35
		S282.65,924.48,282.65,924.11z"/>
</g>
<polygon class="st0" points="609.21,1473.03 432.36,1473.03 460.7,1316.22 637.55,1316.22 "/>
<g class="st1">
	<path class="st2" d="M527.31,1329.58H516.7v10.64h-1.92v-22.75h14.09v1.62H516.7v8.86h10.61V1329.58z"/>
	<path class="st2" d="M538.89,1340.54c-1.44,0-2.74-0.35-3.9-1.06c-1.16-0.71-2.07-1.7-2.71-2.96c-0.65-1.27-0.97-2.69-0.97-4.26
		v-0.67c0-1.62,0.31-3.09,0.95-4.39c0.63-1.3,1.51-2.33,2.63-3.07c1.12-0.74,2.34-1.12,3.66-1.12c2.05,0,3.68,0.7,4.88,2.1
		c1.2,1.4,1.8,3.32,1.8,5.74v1.05h-12.06v0.36c0,1.92,0.55,3.51,1.65,4.79c1.1,1.28,2.48,1.91,4.15,1.91c1,0,1.88-0.18,2.65-0.55
		s1.46-0.95,2.09-1.75l1.17,0.89C543.5,1339.54,541.5,1340.54,538.89,1340.54z M538.55,1324.6c-1.41,0-2.59,0.52-3.55,1.55
		c-0.96,1.03-1.55,2.42-1.76,4.16h10.14v-0.2c-0.05-1.62-0.52-2.95-1.39-3.97C541.11,1325.11,539.96,1324.6,538.55,1324.6z"/>
	<path class="st2" d="M550.58,1323.32l0.06,2.75c0.62-1.02,1.41-1.79,2.34-2.3c0.94-0.51,1.98-0.77,3.12-0.77
		c2.67,0,4.36,1.09,5.08,3.28c0.6-1.05,1.41-1.86,2.42-2.43c1.01-0.57,2.12-0.85,3.34-0.85c3.62,0,5.47,1.98,5.55,5.94v11.28h-1.88
		v-11.14c-0.01-1.51-0.34-2.63-0.98-3.36c-0.64-0.73-1.69-1.09-3.13-1.09c-1.34,0.02-2.48,0.46-3.41,1.31
		c-0.93,0.85-1.44,1.88-1.55,3.1v11.19h-1.88v-11.28c-0.01-1.45-0.35-2.53-1.02-3.24c-0.67-0.71-1.71-1.07-3.1-1.07
		c-1.18,0-2.19,0.34-3.03,1.01c-0.84,0.67-1.47,1.67-1.88,2.99v11.59h-1.88v-16.91H550.58z"/>
	<path class="st2" d="M587.91,1340.22c-0.19-0.53-0.31-1.32-0.36-2.36c-0.66,0.85-1.49,1.51-2.51,1.98s-2.09,0.7-3.23,0.7
		c-1.62,0-2.94-0.45-3.95-1.36c-1.01-0.91-1.51-2.05-1.51-3.44c0-1.65,0.68-2.95,2.05-3.91c1.37-0.96,3.28-1.44,5.73-1.44h3.39
		v-1.92c0-1.21-0.37-2.16-1.12-2.85c-0.75-0.69-1.83-1.04-3.26-1.04c-1.3,0-2.38,0.33-3.23,1c-0.85,0.67-1.28,1.47-1.28,2.41
		l-1.88-0.02c0-1.34,0.62-2.51,1.88-3.49s2.79-1.48,4.61-1.48c1.89,0,3.37,0.47,4.46,1.41c1.09,0.94,1.65,2.26,1.68,3.95v8
		c0,1.64,0.17,2.86,0.52,3.67v0.19H587.91z M582.03,1338.88c1.25,0,2.37-0.3,3.35-0.91s1.7-1.41,2.15-2.42v-3.72h-3.34
		c-1.86,0.02-3.32,0.36-4.38,1.02c-1.05,0.66-1.58,1.57-1.58,2.73c0,0.95,0.35,1.73,1.05,2.36S580.91,1338.88,582.03,1338.88z"/>
	<path class="st2" d="M596.47,1340.22h-1.88v-24h1.88V1340.22z"/>
	<path class="st2" d="M608.09,1340.54c-1.44,0-2.74-0.35-3.9-1.06c-1.16-0.71-2.07-1.7-2.71-2.96c-0.65-1.27-0.97-2.69-0.97-4.26
		v-0.67c0-1.62,0.31-3.09,0.95-4.39c0.63-1.3,1.51-2.33,2.63-3.07c1.12-0.74,2.34-1.12,3.66-1.12c2.05,0,3.68,0.7,4.88,2.1
		c1.2,1.4,1.8,3.32,1.8,5.74v1.05h-12.06v0.36c0,1.92,0.55,3.51,1.65,4.79c1.1,1.28,2.48,1.91,4.15,1.91c1,0,1.88-0.18,2.65-0.55
		s1.46-0.95,2.09-1.75l1.17,0.89C612.7,1339.54,610.71,1340.54,608.09,1340.54z M607.75,1324.6c-1.41,0-2.59,0.52-3.55,1.55
		c-0.96,1.03-1.55,2.42-1.76,4.16h10.14v-0.2c-0.05-1.62-0.52-2.95-1.39-3.97C610.31,1325.11,609.17,1324.6,607.75,1324.6z"/>
	<path class="st2" d="M628.2,1335.93c0-0.93-0.37-1.67-1.12-2.24c-0.75-0.56-1.87-1-3.37-1.32c-1.5-0.32-2.66-0.68-3.49-1.09
		c-0.83-0.41-1.44-0.91-1.84-1.51c-0.4-0.59-0.6-1.31-0.6-2.16c0-1.33,0.56-2.44,1.67-3.31c1.11-0.87,2.54-1.3,4.28-1.3
		c1.89,0,3.4,0.47,4.54,1.4c1.14,0.93,1.71,2.15,1.71,3.65h-1.88c0-0.99-0.41-1.81-1.24-2.47c-0.83-0.66-1.87-0.99-3.13-0.99
		c-1.23,0-2.22,0.27-2.96,0.82c-0.75,0.55-1.12,1.26-1.12,2.13c0,0.84,0.31,1.5,0.93,1.96c0.62,0.46,1.75,0.89,3.39,1.27
		s2.87,0.8,3.69,1.23c0.82,0.44,1.42,0.96,1.82,1.58c0.4,0.62,0.59,1.36,0.59,2.24c0,1.43-0.58,2.57-1.73,3.42
		c-1.15,0.85-2.65,1.28-4.51,1.28c-1.97,0-3.57-0.48-4.79-1.43c-1.22-0.95-1.84-2.16-1.84-3.62h1.88c0.07,1.09,0.53,1.95,1.38,2.55
		c0.85,0.61,1.97,0.91,3.37,0.91c1.3,0,2.35-0.29,3.16-0.86C627.8,1337.53,628.2,1336.8,628.2,1335.93z"/>
</g>
<g class="st1">
	<path class="st2" d="M481.02,1378.62c-0.19-0.53-0.31-1.32-0.36-2.36c-0.66,0.85-1.49,1.51-2.51,1.98s-2.09,0.7-3.23,0.7
		c-1.62,0-2.94-0.45-3.95-1.36c-1.01-0.91-1.51-2.05-1.51-3.44c0-1.65,0.68-2.95,2.05-3.91c1.37-0.96,3.28-1.44,5.73-1.44h3.39
		v-1.92c0-1.21-0.37-2.16-1.12-2.85c-0.75-0.69-1.83-1.04-3.26-1.04c-1.3,0-2.38,0.33-3.23,1c-0.85,0.67-1.28,1.47-1.28,2.41
		l-1.88-0.02c0-1.34,0.62-2.51,1.88-3.49s2.79-1.48,4.61-1.48c1.89,0,3.37,0.47,4.46,1.41c1.09,0.94,1.65,2.26,1.68,3.95v8
		c0,1.64,0.17,2.86,0.52,3.67v0.19H481.02z M475.14,1377.27c1.25,0,2.37-0.3,3.35-0.91s1.7-1.41,2.15-2.42v-3.72h-3.34
		c-1.86,0.02-3.32,0.36-4.38,1.02c-1.05,0.66-1.58,1.57-1.58,2.73c0,0.95,0.35,1.73,1.05,2.36S474.02,1377.27,475.14,1377.27z"/>
	<path class="st2" d="M495.3,1363.3c-0.4-0.07-0.82-0.11-1.27-0.11c-1.17,0-2.15,0.33-2.96,0.98c-0.81,0.65-1.38,1.6-1.73,2.84
		v11.61h-1.86v-16.91h1.83l0.03,2.69c0.99-2,2.58-3,4.77-3c0.52,0,0.93,0.07,1.23,0.2L495.3,1363.3z"/>
	<path class="st2" d="M504.8,1378.93c-1.44,0-2.74-0.35-3.9-1.06c-1.16-0.71-2.07-1.7-2.71-2.96c-0.65-1.27-0.97-2.69-0.97-4.26
		v-0.67c0-1.62,0.31-3.09,0.95-4.39c0.63-1.3,1.51-2.33,2.63-3.07c1.12-0.74,2.34-1.12,3.66-1.12c2.05,0,3.68,0.7,4.88,2.1
		c1.2,1.4,1.8,3.32,1.8,5.74v1.05h-12.06v0.36c0,1.92,0.55,3.51,1.65,4.79c1.1,1.28,2.48,1.91,4.15,1.91c1,0,1.88-0.18,2.65-0.55
		s1.46-0.95,2.09-1.75l1.17,0.89C509.41,1377.94,507.41,1378.93,504.8,1378.93z M504.45,1362.99c-1.41,0-2.59,0.52-3.55,1.55
		c-0.96,1.03-1.55,2.42-1.76,4.16h10.14v-0.2c-0.05-1.62-0.52-2.95-1.39-3.97C507.02,1363.5,505.87,1362.99,504.45,1362.99z"/>
	<path class="st2" d="M532.69,1374.32c0-0.93-0.37-1.67-1.12-2.24c-0.75-0.56-1.87-1-3.37-1.32c-1.5-0.32-2.66-0.68-3.49-1.09
		c-0.83-0.41-1.44-0.91-1.84-1.51c-0.4-0.59-0.6-1.31-0.6-2.16c0-1.33,0.56-2.44,1.67-3.31c1.11-0.87,2.54-1.3,4.28-1.3
		c1.89,0,3.4,0.47,4.54,1.4c1.14,0.93,1.71,2.15,1.71,3.65h-1.88c0-0.99-0.41-1.81-1.24-2.47c-0.83-0.66-1.87-0.99-3.13-0.99
		c-1.23,0-2.22,0.27-2.96,0.82c-0.75,0.55-1.12,1.26-1.12,2.13c0,0.84,0.31,1.5,0.93,1.96c0.62,0.46,1.75,0.89,3.39,1.27
		s2.87,0.8,3.69,1.23c0.82,0.44,1.42,0.96,1.82,1.58c0.4,0.62,0.59,1.36,0.59,2.24c0,1.43-0.58,2.57-1.73,3.42
		c-1.15,0.85-2.65,1.28-4.51,1.28c-1.97,0-3.57-0.48-4.79-1.43c-1.22-0.95-1.84-2.16-1.84-3.62h1.88c0.07,1.09,0.53,1.95,1.38,2.55
		c0.85,0.61,1.97,0.91,3.37,0.91c1.3,0,2.35-0.29,3.16-0.86C532.29,1375.92,532.69,1375.2,532.69,1374.32z"/>
	<path class="st2" d="M540.47,1361.71l0.06,2.75c0.62-1.02,1.41-1.79,2.34-2.3c0.94-0.51,1.98-0.77,3.12-0.77
		c2.67,0,4.36,1.09,5.08,3.28c0.6-1.05,1.41-1.86,2.42-2.43c1.01-0.57,2.12-0.85,3.34-0.85c3.62,0,5.47,1.98,5.55,5.94v11.28h-1.88
		v-11.14c-0.01-1.51-0.34-2.63-0.98-3.36c-0.64-0.73-1.69-1.09-3.13-1.09c-1.34,0.02-2.48,0.46-3.41,1.31
		c-0.93,0.85-1.44,1.88-1.55,3.1v11.19h-1.88v-11.28c-0.01-1.45-0.35-2.53-1.02-3.24c-0.67-0.71-1.71-1.07-3.1-1.07
		c-1.18,0-2.19,0.34-3.03,1.01c-0.84,0.67-1.47,1.67-1.88,2.99v11.59h-1.88v-16.91H540.47z"/>
	<path class="st2" d="M577.8,1378.62c-0.19-0.53-0.31-1.32-0.36-2.36c-0.66,0.85-1.49,1.51-2.51,1.98s-2.09,0.7-3.23,0.7
		c-1.62,0-2.94-0.45-3.95-1.36c-1.01-0.91-1.51-2.05-1.51-3.44c0-1.65,0.68-2.95,2.05-3.91c1.37-0.96,3.28-1.44,5.73-1.44h3.39
		v-1.92c0-1.21-0.37-2.16-1.12-2.85c-0.75-0.69-1.83-1.04-3.26-1.04c-1.3,0-2.38,0.33-3.23,1c-0.85,0.67-1.28,1.47-1.28,2.41
		l-1.88-0.02c0-1.34,0.62-2.51,1.88-3.49s2.79-1.48,4.61-1.48c1.89,0,3.37,0.47,4.46,1.41c1.09,0.94,1.65,2.26,1.68,3.95v8
		c0,1.64,0.17,2.86,0.52,3.67v0.19H577.8z M571.92,1377.27c1.25,0,2.37-0.3,3.35-0.91s1.7-1.41,2.15-2.42v-3.72h-3.34
		c-1.86,0.02-3.32,0.36-4.38,1.02c-1.05,0.66-1.58,1.57-1.58,2.73c0,0.95,0.35,1.73,1.05,2.36S570.8,1377.27,571.92,1377.27z"/>
	<path class="st2" d="M586.36,1378.62h-1.88v-24h1.88V1378.62z"/>
	<path class="st2" d="M593.53,1378.62h-1.88v-24h1.88V1378.62z"/>
	<path class="st2" d="M605.16,1378.93c-1.44,0-2.74-0.35-3.9-1.06c-1.16-0.71-2.07-1.7-2.71-2.96c-0.65-1.27-0.97-2.69-0.97-4.26
		v-0.67c0-1.62,0.31-3.09,0.95-4.39c0.63-1.3,1.51-2.33,2.63-3.07c1.12-0.74,2.34-1.12,3.66-1.12c2.05,0,3.68,0.7,4.88,2.1
		c1.2,1.4,1.8,3.32,1.8,5.74v1.05h-12.06v0.36c0,1.92,0.55,3.51,1.65,4.79c1.1,1.28,2.48,1.91,4.15,1.91c1,0,1.88-0.18,2.65-0.55
		s1.46-0.95,2.09-1.75l1.17,0.89C609.77,1377.94,607.77,1378.93,605.16,1378.93z M604.81,1362.99c-1.41,0-2.59,0.52-3.55,1.55
		c-0.96,1.03-1.55,2.42-1.76,4.16h10.14v-0.2c-0.05-1.62-0.52-2.95-1.39-3.97C607.38,1363.5,606.23,1362.99,604.81,1362.99z"/>
	<path class="st2" d="M622.95,1363.3c-0.4-0.07-0.82-0.11-1.27-0.11c-1.17,0-2.15,0.33-2.96,0.98c-0.81,0.65-1.38,1.6-1.73,2.84
		v11.61h-1.86v-16.91h1.83l0.03,2.69c0.99-2,2.58-3,4.77-3c0.52,0,0.93,0.07,1.23,0.2L622.95,1363.3z"/>
</g>
<g class="st1">
	<path class="st2" d="M466.95,1395.79v4.33h3.5v1.53h-3.5v11.28c0,0.94,0.17,1.64,0.51,2.1c0.34,0.46,0.9,0.69,1.7,0.69
		c0.31,0,0.82-0.05,1.52-0.16l0.08,1.52c-0.49,0.17-1.16,0.26-2,0.26c-1.28,0-2.21-0.37-2.8-1.12c-0.58-0.75-0.88-1.84-0.88-3.29
		v-11.28h-3.11v-1.53h3.11v-4.33H466.95z"/>
	<path class="st2" d="M476.18,1402.97c0.61-1.01,1.4-1.79,2.36-2.34c0.96-0.55,2-0.83,3.14-0.83c1.81,0,3.16,0.51,4.05,1.53
		c0.89,1.02,1.33,2.55,1.34,4.59v11.09h-1.86v-11.11c-0.01-1.51-0.33-2.64-0.96-3.38c-0.63-0.74-1.64-1.11-3.02-1.11
		c-1.16,0-2.18,0.36-3.07,1.09c-0.89,0.72-1.55,1.7-1.98,2.93v11.58h-1.86v-24h1.86V1402.97z"/>
	<path class="st2" d="M502.56,1417.02c-0.19-0.53-0.31-1.32-0.36-2.36c-0.66,0.85-1.49,1.51-2.51,1.98s-2.09,0.7-3.23,0.7
		c-1.62,0-2.94-0.45-3.95-1.36c-1.01-0.91-1.51-2.05-1.51-3.44c0-1.65,0.68-2.95,2.05-3.91c1.37-0.96,3.28-1.44,5.73-1.44h3.39
		v-1.92c0-1.21-0.37-2.16-1.12-2.85c-0.75-0.69-1.83-1.04-3.26-1.04c-1.3,0-2.38,0.33-3.23,1c-0.85,0.67-1.28,1.47-1.28,2.41
		l-1.88-0.02c0-1.34,0.62-2.51,1.88-3.49s2.79-1.48,4.61-1.48c1.89,0,3.37,0.47,4.46,1.41c1.09,0.94,1.65,2.26,1.68,3.95v8
		c0,1.64,0.17,2.86,0.52,3.67v0.19H502.56z M496.68,1415.68c1.25,0,2.37-0.3,3.35-0.91s1.7-1.41,2.15-2.42v-3.72h-3.34
		c-1.86,0.02-3.32,0.36-4.38,1.02c-1.05,0.66-1.58,1.57-1.58,2.73c0,0.95,0.35,1.73,1.05,2.36S495.56,1415.68,496.68,1415.68z"/>
	<path class="st2" d="M510.81,1400.11l0.06,2.89c0.64-1.04,1.43-1.84,2.38-2.38c0.95-0.55,1.99-0.82,3.14-0.82
		c1.81,0,3.16,0.51,4.05,1.53c0.89,1.02,1.33,2.55,1.34,4.59v11.09h-1.86v-11.11c-0.01-1.51-0.33-2.64-0.96-3.38
		c-0.63-0.74-1.64-1.11-3.02-1.11c-1.16,0-2.18,0.36-3.07,1.09c-0.89,0.72-1.55,1.7-1.98,2.93v11.58h-1.86v-16.91H510.81z"/>
	<path class="st2" d="M536.09,1400.11l0.06,2.75c0.62-1.02,1.41-1.79,2.34-2.3c0.94-0.51,1.98-0.77,3.12-0.77
		c2.67,0,4.36,1.09,5.08,3.28c0.6-1.05,1.41-1.86,2.42-2.43c1.01-0.57,2.12-0.85,3.34-0.85c3.62,0,5.47,1.98,5.55,5.94v11.28h-1.88
		v-11.14c-0.01-1.51-0.34-2.63-0.98-3.36c-0.64-0.73-1.69-1.09-3.13-1.09c-1.34,0.02-2.48,0.46-3.41,1.31
		c-0.93,0.85-1.44,1.88-1.55,3.1v11.19h-1.88v-11.28c-0.01-1.45-0.35-2.53-1.02-3.24c-0.67-0.71-1.71-1.07-3.1-1.07
		c-1.18,0-2.19,0.34-3.03,1.01c-0.84,0.67-1.47,1.67-1.88,2.99v11.59h-1.88v-16.91H536.09z"/>
	<path class="st2" d="M573.42,1417.02c-0.19-0.53-0.31-1.32-0.36-2.36c-0.66,0.85-1.49,1.51-2.51,1.98s-2.09,0.7-3.23,0.7
		c-1.62,0-2.94-0.45-3.95-1.36c-1.01-0.91-1.51-2.05-1.51-3.44c0-1.65,0.68-2.95,2.05-3.91c1.37-0.96,3.28-1.44,5.73-1.44h3.39
		v-1.92c0-1.21-0.37-2.16-1.12-2.85c-0.75-0.69-1.83-1.04-3.26-1.04c-1.3,0-2.38,0.33-3.23,1c-0.85,0.67-1.28,1.47-1.28,2.41
		l-1.88-0.02c0-1.34,0.62-2.51,1.88-3.49s2.79-1.48,4.61-1.48c1.89,0,3.37,0.47,4.46,1.41c1.09,0.94,1.65,2.26,1.68,3.95v8
		c0,1.64,0.17,2.86,0.52,3.67v0.19H573.42z M567.54,1415.68c1.25,0,2.37-0.3,3.35-0.91s1.7-1.41,2.15-2.42v-3.72h-3.34
		c-1.86,0.02-3.32,0.36-4.38,1.02c-1.05,0.66-1.58,1.57-1.58,2.73c0,0.95,0.35,1.73,1.05,2.36S566.42,1415.68,567.54,1415.68z"/>
	<path class="st2" d="M581.98,1417.02h-1.88v-24h1.88V1417.02z"/>
	<path class="st2" d="M593.61,1417.33c-1.44,0-2.74-0.35-3.9-1.06c-1.16-0.71-2.07-1.7-2.71-2.96c-0.65-1.27-0.97-2.69-0.97-4.26
		v-0.67c0-1.62,0.31-3.09,0.95-4.39c0.63-1.3,1.51-2.33,2.63-3.07c1.12-0.74,2.34-1.12,3.66-1.12c2.05,0,3.68,0.7,4.88,2.1
		c1.2,1.4,1.8,3.32,1.8,5.74v1.05h-12.06v0.36c0,1.92,0.55,3.51,1.65,4.79c1.1,1.28,2.48,1.91,4.15,1.91c1,0,1.88-0.18,2.65-0.55
		s1.46-0.95,2.09-1.75l1.17,0.89C598.22,1416.34,596.22,1417.33,593.61,1417.33z M593.26,1401.39c-1.41,0-2.59,0.52-3.55,1.55
		c-0.96,1.03-1.55,2.42-1.76,4.16h10.14v-0.2c-0.05-1.62-0.52-2.95-1.39-3.97C595.83,1401.91,594.68,1401.39,593.26,1401.39z"/>
	<path class="st2" d="M613.72,1412.72c0-0.93-0.37-1.67-1.12-2.24c-0.75-0.56-1.87-1-3.37-1.32c-1.5-0.32-2.66-0.68-3.49-1.09
		c-0.83-0.41-1.44-0.91-1.84-1.51c-0.4-0.59-0.6-1.31-0.6-2.16c0-1.33,0.56-2.44,1.67-3.31c1.11-0.87,2.54-1.3,4.28-1.3
		c1.89,0,3.4,0.47,4.54,1.4c1.14,0.93,1.71,2.15,1.71,3.65h-1.88c0-0.99-0.41-1.81-1.24-2.47c-0.83-0.66-1.87-0.99-3.13-0.99
		c-1.23,0-2.22,0.27-2.96,0.82c-0.75,0.55-1.12,1.26-1.12,2.13c0,0.84,0.31,1.5,0.93,1.96c0.62,0.46,1.75,0.89,3.39,1.27
		s2.87,0.8,3.69,1.23c0.82,0.44,1.42,0.96,1.82,1.58c0.4,0.62,0.59,1.36,0.59,2.24c0,1.43-0.58,2.57-1.73,3.42
		c-1.15,0.85-2.65,1.28-4.51,1.28c-1.97,0-3.57-0.48-4.79-1.43c-1.22-0.95-1.84-2.16-1.84-3.62h1.88c0.07,1.09,0.53,1.95,1.38,2.55
		c0.85,0.61,1.97,0.91,3.37,0.91c1.3,0,2.35-0.29,3.16-0.86C613.31,1414.32,613.72,1413.6,613.72,1412.72z"/>
</g>
<circle class="st3" cx="1382.61" cy="1122.14" r="18.71"/>
<g>
	<g class="st1">
		<path class="st2" d="M1417.48,1112.14l7.34,17.57l7.37-17.57h2.24v19.91h-1.68v-8.67l0.14-8.89l-7.41,17.56h-1.3l-7.38-17.49
			l0.14,8.76v8.72h-1.68v-19.91H1417.48z"/>
		<path class="st2" d="M1448.44,1132.05c-0.16-0.46-0.27-1.15-0.31-2.06c-0.57,0.75-1.31,1.32-2.19,1.73s-1.83,0.61-2.82,0.61
			c-1.42,0-2.57-0.4-3.45-1.19s-1.32-1.8-1.32-3.01c0-1.44,0.6-2.58,1.8-3.42c1.2-0.84,2.87-1.26,5.01-1.26h2.97v-1.68
			c0-1.06-0.33-1.89-0.98-2.5s-1.6-0.91-2.85-0.91c-1.14,0-2.08,0.29-2.83,0.88c-0.75,0.58-1.12,1.29-1.12,2.11l-1.64-0.01
			c0-1.18,0.55-2.19,1.64-3.06s2.44-1.29,4.03-1.29c1.65,0,2.95,0.41,3.9,1.24c0.95,0.82,1.44,1.98,1.47,3.45v7
			c0,1.43,0.15,2.5,0.45,3.21v0.16H1448.44z M1443.3,1130.87c1.09,0,2.07-0.26,2.93-0.79s1.49-1.24,1.88-2.12v-3.25h-2.93
			c-1.63,0.02-2.91,0.32-3.83,0.9c-0.92,0.58-1.38,1.37-1.38,2.39c0,0.83,0.31,1.52,0.92,2.06S1442.31,1130.87,1443.3,1130.87z"/>
		<path class="st2" d="M1455.93,1132.05h-1.64v-21h1.64V1132.05z"/>
		<path class="st2" d="M1466.1,1132.32c-1.26,0-2.39-0.31-3.41-0.93s-1.81-1.48-2.37-2.59s-0.85-2.35-0.85-3.73v-0.59
			c0-1.42,0.28-2.7,0.83-3.84s1.32-2.04,2.3-2.69c0.98-0.65,2.05-0.98,3.2-0.98c1.8,0,3.22,0.61,4.27,1.84
			c1.05,1.23,1.58,2.9,1.58,5.02v0.92h-10.55v0.31c0,1.68,0.48,3.07,1.44,4.19c0.96,1.12,2.17,1.67,3.63,1.67
			c0.88,0,1.65-0.16,2.32-0.48s1.28-0.83,1.83-1.53l1.03,0.78C1470.13,1131.45,1468.39,1132.32,1466.1,1132.32z M1465.8,1118.37
			c-1.23,0-2.27,0.45-3.11,1.35s-1.36,2.11-1.54,3.64h8.87v-0.18c-0.05-1.42-0.45-2.58-1.22-3.47S1467.04,1118.37,1465.8,1118.37z"
			/>
	</g>
</g>
<circle class="st4" cx="734.68" cy="1214.16" r="11.22"/>
<circle class="st2" cx="1068.94" cy="1381.42" r="11.22"/>
<g>
	<g class="st1">
		<path class="st2" d="M661.45,1175.47h-9.28v9.31h-1.68v-19.91h12.33v1.42h-10.65v7.75h9.28V1175.47z"/>
		<path class="st2" d="M671.58,1185.05c-1.26,0-2.4-0.31-3.41-0.93c-1.02-0.62-1.81-1.48-2.37-2.59c-0.57-1.11-0.85-2.35-0.85-3.73
			v-0.59c0-1.42,0.28-2.7,0.83-3.84c0.55-1.14,1.32-2.04,2.3-2.69c0.98-0.65,2.05-0.98,3.2-0.98c1.8,0,3.22,0.61,4.27,1.84
			c1.05,1.23,1.58,2.9,1.58,5.02v0.92h-10.55v0.31c0,1.68,0.48,3.07,1.44,4.19c0.96,1.12,2.17,1.67,3.63,1.67
			c0.88,0,1.65-0.16,2.32-0.48s1.28-0.83,1.83-1.53l1.03,0.78C675.61,1184.18,673.86,1185.05,671.58,1185.05z M671.28,1171.11
			c-1.23,0-2.27,0.45-3.11,1.35c-0.84,0.9-1.36,2.11-1.54,3.64h8.87v-0.18c-0.05-1.42-0.45-2.58-1.22-3.47
			S672.52,1171.11,671.28,1171.11z"/>
		<path class="st2" d="M681.8,1169.99l0.05,2.41c0.55-0.89,1.23-1.56,2.05-2.01c0.82-0.45,1.73-0.67,2.73-0.67
			c2.33,0,3.81,0.96,4.44,2.87c0.53-0.92,1.23-1.63,2.12-2.13c0.88-0.5,1.86-0.75,2.93-0.75c3.17,0,4.79,1.73,4.85,5.2v9.87h-1.64
			v-9.75c-0.01-1.32-0.29-2.3-0.85-2.94c-0.56-0.64-1.47-0.96-2.74-0.96c-1.18,0.02-2.17,0.4-2.98,1.14
			c-0.81,0.74-1.26,1.65-1.35,2.71v9.79h-1.64v-9.87c-0.01-1.27-0.31-2.21-0.9-2.84c-0.59-0.62-1.49-0.94-2.71-0.94
			c-1.03,0-1.91,0.29-2.65,0.88s-1.29,1.46-1.64,2.62v10.15h-1.64v-14.79H681.8z"/>
		<path class="st2" d="M714.47,1184.78c-0.16-0.46-0.27-1.15-0.31-2.06c-0.57,0.75-1.31,1.32-2.19,1.73s-1.83,0.61-2.82,0.61
			c-1.42,0-2.57-0.4-3.45-1.19c-0.88-0.79-1.32-1.8-1.32-3.01c0-1.44,0.6-2.58,1.8-3.42c1.2-0.84,2.87-1.26,5.01-1.26h2.97v-1.68
			c0-1.06-0.33-1.89-0.98-2.5c-0.65-0.61-1.6-0.91-2.85-0.91c-1.14,0-2.08,0.29-2.83,0.88c-0.75,0.58-1.12,1.29-1.12,2.11
			l-1.64-0.01c0-1.18,0.55-2.19,1.64-3.06s2.44-1.29,4.03-1.29c1.65,0,2.95,0.41,3.9,1.24c0.95,0.82,1.44,1.98,1.47,3.45v7
			c0,1.43,0.15,2.5,0.45,3.21v0.16H714.47z M709.33,1183.61c1.09,0,2.07-0.26,2.93-0.79s1.49-1.24,1.88-2.12v-3.25h-2.93
			c-1.63,0.02-2.91,0.32-3.83,0.9c-0.92,0.58-1.38,1.37-1.38,2.39c0,0.83,0.31,1.52,0.92,2.06S708.34,1183.61,709.33,1183.61z"/>
		<path class="st2" d="M721.96,1184.78h-1.64v-21h1.64V1184.78z"/>
		<path class="st2" d="M732.13,1185.05c-1.26,0-2.4-0.31-3.41-0.93c-1.02-0.62-1.81-1.48-2.37-2.59c-0.57-1.11-0.85-2.35-0.85-3.73
			v-0.59c0-1.42,0.28-2.7,0.83-3.84c0.55-1.14,1.32-2.04,2.3-2.69c0.98-0.65,2.05-0.98,3.2-0.98c1.8,0,3.22,0.61,4.27,1.84
			c1.05,1.23,1.58,2.9,1.58,5.02v0.92h-10.55v0.31c0,1.68,0.48,3.07,1.44,4.19c0.96,1.12,2.17,1.67,3.63,1.67
			c0.88,0,1.65-0.16,2.32-0.48s1.28-0.83,1.83-1.53l1.03,0.78C736.16,1184.18,734.42,1185.05,732.13,1185.05z M731.83,1171.11
			c-1.23,0-2.27,0.45-3.11,1.35c-0.84,0.9-1.36,2.11-1.54,3.64h8.87v-0.18c-0.05-1.42-0.45-2.58-1.22-3.47
			S733.07,1171.11,731.83,1171.11z"/>
	</g>
</g>
<g>
	<g class="st1">
		<path class="st2" d="M1044.6,1338.43h-1.68v-19.91h1.68V1338.43z"/>
		<path class="st2" d="M1051.18,1323.63l0.05,2.53c0.56-0.91,1.25-1.61,2.08-2.08c0.83-0.48,1.75-0.72,2.75-0.72
			c1.59,0,2.77,0.45,3.54,1.34c0.77,0.89,1.17,2.23,1.18,4.02v9.71h-1.63v-9.72c-0.01-1.32-0.29-2.31-0.84-2.95
			s-1.43-0.97-2.65-0.97c-1.01,0-1.91,0.32-2.69,0.95s-1.36,1.49-1.73,2.56v10.13h-1.63v-14.79H1051.18z"/>
		<path class="st2" d="M1066.18,1338.43v-13.45h-2.45v-1.34h2.45v-1.79c0-1.51,0.38-2.67,1.16-3.49s1.84-1.22,3.22-1.22
			c0.62,0,1.2,0.08,1.74,0.23l-0.12,1.36c-0.46-0.11-0.95-0.16-1.49-0.16c-0.9,0-1.6,0.28-2.11,0.84c-0.5,0.56-0.75,1.36-0.75,2.39
			v1.84h3.53v1.34h-3.53v13.45H1066.18z"/>
		<path class="st2" d="M1083.61,1338.43c-0.16-0.46-0.27-1.15-0.31-2.06c-0.57,0.75-1.31,1.32-2.19,1.73s-1.83,0.61-2.82,0.61
			c-1.42,0-2.57-0.4-3.45-1.19s-1.32-1.8-1.32-3.01c0-1.44,0.6-2.58,1.8-3.42c1.2-0.84,2.87-1.26,5.01-1.26h2.97v-1.68
			c0-1.06-0.33-1.89-0.98-2.5s-1.6-0.91-2.85-0.91c-1.14,0-2.08,0.29-2.83,0.88c-0.75,0.58-1.12,1.29-1.12,2.11l-1.64-0.01
			c0-1.18,0.55-2.19,1.64-3.06s2.44-1.29,4.03-1.29c1.65,0,2.95,0.41,3.9,1.24c0.95,0.82,1.44,1.98,1.47,3.45v7
			c0,1.43,0.15,2.5,0.45,3.21v0.16H1083.61z M1078.47,1337.25c1.09,0,2.07-0.26,2.93-0.79s1.49-1.24,1.88-2.12v-3.25h-2.93
			c-1.63,0.02-2.91,0.32-3.83,0.9c-0.92,0.58-1.38,1.37-1.38,2.39c0,0.83,0.31,1.52,0.92,2.06S1077.48,1337.25,1078.47,1337.25z"/>
		<path class="st2" d="M1090.83,1323.63l0.05,2.53c0.56-0.91,1.25-1.61,2.08-2.08c0.83-0.48,1.75-0.72,2.75-0.72
			c1.59,0,2.77,0.45,3.54,1.34c0.77,0.89,1.17,2.23,1.18,4.02v9.71h-1.63v-9.72c-0.01-1.32-0.29-2.31-0.84-2.95
			s-1.43-0.97-2.65-0.97c-1.01,0-1.91,0.32-2.69,0.95s-1.36,1.49-1.73,2.56v10.13h-1.63v-14.79H1090.83z"/>
		<path class="st2" d="M1107.19,1319.85v3.79h3.06v1.34h-3.06v9.87c0,0.82,0.15,1.43,0.44,1.83s0.79,0.6,1.48,0.6
			c0.27,0,0.72-0.05,1.33-0.14l0.07,1.33c-0.43,0.15-1.01,0.23-1.75,0.23c-1.12,0-1.94-0.33-2.45-0.98s-0.77-1.61-0.77-2.88v-9.87
			h-2.72v-1.34h2.72v-3.79H1107.19z"/>
	</g>
</g>
<circle class="st5" cx="239.05" cy="1373.26" r="11.22"/>
<g>
	<g class="st1">
		<path class="st2" d="M117.47,1364.58h1.7v13.99c0,1.89-0.54,3.39-1.63,4.51c-1.09,1.12-2.55,1.68-4.38,1.68
			c-1.93,0-3.42-0.51-4.46-1.52s-1.56-2.42-1.56-4.24h1.68c0,1.44,0.38,2.52,1.13,3.25c0.76,0.72,1.82,1.09,3.2,1.09
			c1.27,0,2.3-0.42,3.1-1.26c0.8-0.84,1.21-1.98,1.22-3.42V1364.58z"/>
		<path class="st2" d="M133.22,1382.62c-0.98,1.43-2.56,2.15-4.72,2.15c-1.58,0-2.78-0.46-3.6-1.37s-1.24-2.27-1.26-4.07v-9.63h1.63
			v9.42c0,2.82,1.14,4.23,3.42,4.23c2.37,0,3.87-0.98,4.5-2.94v-10.71h1.64v14.79h-1.59L133.22,1382.62z"/>
		<path class="st2" d="M143.69,1382.23l4.5-12.54h1.68l-5.52,14.79h-1.33l-5.55-14.79h1.68L143.69,1382.23z"/>
		<path class="st2" d="M158.28,1384.76c-1.26,0-2.4-0.31-3.41-0.93c-1.02-0.62-1.81-1.48-2.37-2.59c-0.57-1.11-0.85-2.35-0.85-3.73
			v-0.59c0-1.42,0.28-2.7,0.83-3.84c0.55-1.14,1.32-2.04,2.3-2.69c0.98-0.65,2.05-0.98,3.2-0.98c1.8,0,3.22,0.61,4.27,1.84
			c1.05,1.23,1.58,2.9,1.58,5.02v0.92h-10.55v0.31c0,1.68,0.48,3.07,1.44,4.19c0.96,1.12,2.17,1.67,3.63,1.67
			c0.88,0,1.65-0.16,2.32-0.48s1.28-0.83,1.83-1.53l1.03,0.78C162.31,1383.89,160.57,1384.76,158.28,1384.76z M157.98,1370.82
			c-1.23,0-2.27,0.45-3.11,1.35c-0.84,0.9-1.36,2.11-1.54,3.64h8.87v-0.18c-0.05-1.42-0.45-2.58-1.22-3.47
			S159.22,1370.82,157.98,1370.82z"/>
		<path class="st2" d="M168.58,1369.69l0.05,2.53c0.56-0.91,1.25-1.61,2.08-2.08c0.83-0.48,1.75-0.72,2.75-0.72
			c1.59,0,2.77,0.45,3.54,1.34c0.77,0.89,1.17,2.23,1.18,4.02v9.71h-1.63v-9.72c-0.01-1.32-0.29-2.31-0.84-2.95
			c-0.55-0.65-1.43-0.97-2.65-0.97c-1.01,0-1.91,0.32-2.69,0.95s-1.36,1.49-1.73,2.56v10.13h-1.63v-14.79H168.58z"/>
		<path class="st2" d="M182.3,1365.42c0-0.31,0.1-0.57,0.3-0.78c0.2-0.21,0.47-0.32,0.82-0.32c0.35,0,0.62,0.11,0.83,0.32
			s0.31,0.47,0.31,0.78c0,0.31-0.1,0.57-0.31,0.77c-0.21,0.21-0.48,0.31-0.83,0.31c-0.35,0-0.62-0.1-0.82-0.31
			C182.4,1365.99,182.3,1365.73,182.3,1365.42z M184.23,1384.49h-1.64v-14.79h1.64V1384.49z"/>
		<path class="st2" d="M190.5,1384.49h-1.64v-21h1.64V1384.49z"/>
		<path class="st2" d="M200.68,1384.76c-1.26,0-2.4-0.31-3.41-0.93c-1.02-0.62-1.81-1.48-2.37-2.59c-0.57-1.11-0.85-2.35-0.85-3.73
			v-0.59c0-1.42,0.28-2.7,0.83-3.84c0.55-1.14,1.32-2.04,2.3-2.69c0.98-0.65,2.05-0.98,3.2-0.98c1.8,0,3.22,0.61,4.27,1.84
			c1.05,1.23,1.58,2.9,1.58,5.02v0.92h-10.55v0.31c0,1.68,0.48,3.07,1.44,4.19c0.96,1.12,2.17,1.67,3.63,1.67
			c0.88,0,1.65-0.16,2.32-0.48s1.28-0.83,1.83-1.53l1.03,0.78C204.71,1383.89,202.96,1384.76,200.68,1384.76z M200.38,1370.82
			c-1.23,0-2.27,0.45-3.11,1.35c-0.84,0.9-1.36,2.11-1.54,3.64h8.87v-0.18c-0.05-1.42-0.45-2.58-1.22-3.47
			S201.62,1370.82,200.38,1370.82z"/>
	</g>
</g>
<circle class="st4" cx="987.99" cy="1158.47" r="11.22"/>
<g>
	<g class="st1">
		<path class="st2" d="M1017.96,1135.6h-9.28v9.31H1007V1125h12.33v1.42h-10.65v7.75h9.28V1135.6z"/>
		<path class="st2" d="M1028.09,1145.18c-1.26,0-2.39-0.31-3.41-0.93s-1.81-1.48-2.37-2.59s-0.85-2.35-0.85-3.73v-0.59
			c0-1.42,0.28-2.7,0.83-3.84s1.32-2.04,2.3-2.69c0.98-0.65,2.05-0.98,3.2-0.98c1.8,0,3.22,0.61,4.27,1.84
			c1.05,1.23,1.58,2.9,1.58,5.02v0.92h-10.55v0.31c0,1.68,0.48,3.07,1.44,4.19c0.96,1.12,2.17,1.67,3.63,1.67
			c0.88,0,1.65-0.16,2.32-0.48s1.28-0.83,1.83-1.53l1.03,0.78C1032.13,1144.31,1030.38,1145.18,1028.09,1145.18z M1027.79,1131.24
			c-1.23,0-2.27,0.45-3.11,1.35s-1.36,2.11-1.54,3.64h8.87v-0.18c-0.05-1.42-0.45-2.58-1.22-3.47S1029.03,1131.24,1027.79,1131.24z"
			/>
		<path class="st2" d="M1038.32,1130.12l0.05,2.41c0.55-0.89,1.23-1.56,2.05-2.01c0.82-0.45,1.73-0.67,2.73-0.67
			c2.33,0,3.81,0.96,4.44,2.87c0.53-0.92,1.24-1.63,2.12-2.13c0.88-0.5,1.86-0.75,2.93-0.75c3.17,0,4.79,1.73,4.85,5.2v9.87h-1.64
			v-9.75c-0.01-1.32-0.29-2.3-0.85-2.94c-0.56-0.64-1.47-0.96-2.74-0.96c-1.18,0.02-2.17,0.4-2.98,1.14s-1.26,1.65-1.35,2.71v9.79
			h-1.64v-9.87c-0.01-1.27-0.31-2.21-0.9-2.84c-0.59-0.62-1.49-0.94-2.71-0.94c-1.03,0-1.91,0.29-2.65,0.88s-1.29,1.46-1.64,2.62
			v10.15h-1.64v-14.79H1038.32z"/>
		<path class="st2" d="M1070.98,1144.91c-0.16-0.46-0.27-1.15-0.31-2.06c-0.57,0.75-1.31,1.32-2.19,1.73s-1.83,0.61-2.82,0.61
			c-1.42,0-2.57-0.4-3.45-1.19s-1.32-1.8-1.32-3.01c0-1.44,0.6-2.58,1.8-3.42c1.2-0.84,2.87-1.26,5.01-1.26h2.97v-1.68
			c0-1.06-0.33-1.89-0.98-2.5s-1.6-0.91-2.85-0.91c-1.14,0-2.08,0.29-2.83,0.88c-0.75,0.58-1.12,1.29-1.12,2.11l-1.64-0.01
			c0-1.18,0.55-2.19,1.64-3.06s2.44-1.29,4.03-1.29c1.65,0,2.95,0.41,3.9,1.24c0.95,0.82,1.44,1.98,1.47,3.45v7
			c0,1.43,0.15,2.5,0.45,3.21v0.16H1070.98z M1065.84,1143.73c1.09,0,2.07-0.26,2.93-0.79s1.49-1.24,1.88-2.12v-3.25h-2.93
			c-1.63,0.02-2.91,0.32-3.83,0.9c-0.92,0.58-1.38,1.37-1.38,2.39c0,0.83,0.31,1.52,0.92,2.06S1064.86,1143.73,1065.84,1143.73z"/>
		<path class="st2" d="M1078.47,1144.91h-1.64v-21h1.64V1144.91z"/>
		<path class="st2" d="M1088.65,1145.18c-1.26,0-2.39-0.31-3.41-0.93s-1.81-1.48-2.37-2.59s-0.85-2.35-0.85-3.73v-0.59
			c0-1.42,0.28-2.7,0.83-3.84s1.32-2.04,2.3-2.69c0.98-0.65,2.05-0.98,3.2-0.98c1.8,0,3.22,0.61,4.27,1.84
			c1.05,1.23,1.58,2.9,1.58,5.02v0.92h-10.55v0.31c0,1.68,0.48,3.07,1.44,4.19c0.96,1.12,2.17,1.67,3.63,1.67
			c0.88,0,1.65-0.16,2.32-0.48s1.28-0.83,1.83-1.53l1.03,0.78C1092.68,1144.31,1090.93,1145.18,1088.65,1145.18z M1088.34,1131.24
			c-1.23,0-2.27,0.45-3.11,1.35s-1.36,2.11-1.54,3.64h8.87v-0.18c-0.05-1.42-0.45-2.58-1.22-3.47S1089.58,1131.24,1088.34,1131.24z"
			/>
	</g>
</g>
<g>
	<g class="st1">
		<path class="st2" d="M868.87,1053.78c0,2.09-0.36,3.93-1.09,5.52c-0.72,1.58-1.76,2.8-3.1,3.66s-2.9,1.28-4.66,1.28
			c-2.66,0-4.8-0.95-6.44-2.85c-1.64-1.9-2.45-4.47-2.45-7.7v-2.34c0-2.07,0.37-3.91,1.1-5.51c0.73-1.6,1.77-2.83,3.12-3.69
			s2.89-1.29,4.64-1.29s3.29,0.42,4.63,1.27c1.34,0.84,2.37,2.04,3.1,3.58c0.73,1.54,1.11,3.33,1.14,5.36V1053.78z M866.95,1051.31
			c0-2.74-0.62-4.89-1.86-6.44c-1.24-1.55-2.94-2.33-5.09-2.33c-2.11,0-3.8,0.78-5.05,2.34c-1.26,1.56-1.88,3.73-1.88,6.52v2.38
			c0,2.7,0.62,4.84,1.88,6.42c1.25,1.58,2.95,2.37,5.09,2.37c2.18,0,3.88-0.78,5.09-2.34s1.83-3.73,1.83-6.51V1051.31z"/>
		<path class="st2" d="M875.06,1047.01l0.06,2.89c0.64-1.04,1.43-1.84,2.38-2.38c0.95-0.55,1.99-0.82,3.14-0.82
			c1.81,0,3.16,0.51,4.05,1.53c0.89,1.02,1.33,2.55,1.34,4.59v11.09h-1.86v-11.11c-0.01-1.51-0.33-2.64-0.96-3.38
			c-0.63-0.74-1.64-1.11-3.02-1.11c-1.16,0-2.18,0.36-3.07,1.09c-0.89,0.72-1.55,1.7-1.98,2.93v11.58h-1.86v-16.91H875.06z"/>
		<path class="st2" d="M897.4,1064.23c-1.44,0-2.74-0.35-3.9-1.06c-1.16-0.71-2.07-1.7-2.71-2.96c-0.65-1.27-0.97-2.69-0.97-4.26
			v-0.67c0-1.62,0.31-3.09,0.95-4.39c0.63-1.3,1.51-2.33,2.63-3.07c1.12-0.74,2.34-1.12,3.66-1.12c2.05,0,3.68,0.7,4.88,2.1
			c1.2,1.4,1.8,3.32,1.8,5.74v1.05h-12.06v0.36c0,1.92,0.55,3.51,1.65,4.79c1.1,1.28,2.48,1.91,4.15,1.91c1,0,1.88-0.18,2.65-0.55
			s1.46-0.95,2.09-1.75l1.17,0.89C902.01,1063.24,900.02,1064.23,897.4,1064.23z M897.06,1048.29c-1.41,0-2.59,0.52-3.55,1.55
			c-0.96,1.03-1.55,2.42-1.76,4.16h10.14v-0.2c-0.05-1.62-0.52-2.95-1.39-3.97C899.62,1048.81,898.47,1048.29,897.06,1048.29z"/>
		<path class="st2" d="M916.87,1047.01l0.06,2.75c0.62-1.02,1.41-1.79,2.34-2.3c0.94-0.51,1.98-0.77,3.12-0.77
			c2.67,0,4.36,1.09,5.08,3.28c0.6-1.05,1.41-1.86,2.42-2.43c1.01-0.57,2.12-0.85,3.34-0.85c3.62,0,5.47,1.98,5.55,5.94v11.28h-1.88
			v-11.14c-0.01-1.51-0.34-2.63-0.98-3.36c-0.64-0.73-1.69-1.09-3.13-1.09c-1.34,0.02-2.48,0.46-3.41,1.31
			c-0.93,0.85-1.44,1.88-1.55,3.1v11.19h-1.88v-11.28c-0.01-1.45-0.35-2.53-1.02-3.24c-0.67-0.71-1.71-1.07-3.1-1.07
			c-1.18,0-2.19,0.34-3.03,1.01c-0.84,0.67-1.47,1.67-1.88,2.99v11.59h-1.88v-16.91H916.87z"/>
		<path class="st2" d="M954.2,1063.92c-0.19-0.53-0.31-1.32-0.36-2.36c-0.66,0.85-1.49,1.51-2.51,1.98s-2.09,0.7-3.23,0.7
			c-1.62,0-2.94-0.45-3.95-1.36c-1.01-0.91-1.51-2.05-1.51-3.44c0-1.65,0.68-2.95,2.05-3.91c1.37-0.96,3.28-1.44,5.73-1.44h3.39
			v-1.92c0-1.21-0.37-2.16-1.12-2.85c-0.75-0.69-1.83-1.04-3.26-1.04c-1.3,0-2.38,0.33-3.23,1c-0.85,0.67-1.28,1.47-1.28,2.41
			l-1.88-0.02c0-1.34,0.62-2.51,1.88-3.49s2.79-1.48,4.61-1.48c1.89,0,3.37,0.47,4.46,1.41c1.09,0.94,1.65,2.26,1.68,3.95v8
			c0,1.64,0.17,2.86,0.52,3.67v0.19H954.2z M948.32,1062.58c1.25,0,2.37-0.3,3.35-0.91s1.7-1.41,2.15-2.42v-3.72h-3.34
			c-1.86,0.02-3.32,0.36-4.38,1.02c-1.05,0.66-1.58,1.57-1.58,2.73c0,0.95,0.35,1.73,1.05,2.36S947.2,1062.58,948.32,1062.58z"/>
		<path class="st2" d="M962.76,1063.92h-1.88v-24h1.88V1063.92z"/>
		<path class="st2" d="M974.39,1064.23c-1.44,0-2.74-0.35-3.9-1.06c-1.16-0.71-2.07-1.7-2.71-2.96c-0.65-1.27-0.97-2.69-0.97-4.26
			v-0.67c0-1.62,0.31-3.09,0.95-4.39c0.63-1.3,1.51-2.33,2.63-3.07c1.12-0.74,2.34-1.12,3.66-1.12c2.05,0,3.68,0.7,4.88,2.1
			c1.2,1.4,1.8,3.32,1.8,5.74v1.05h-12.06v0.36c0,1.92,0.55,3.51,1.65,4.79c1.1,1.28,2.48,1.91,4.15,1.91c1,0,1.88-0.18,2.65-0.55
			s1.46-0.95,2.09-1.75l1.17,0.89C979,1063.24,977,1064.23,974.39,1064.23z M974.04,1048.29c-1.41,0-2.59,0.52-3.55,1.55
			c-0.96,1.03-1.55,2.42-1.76,4.16h10.14v-0.2c-0.05-1.62-0.52-2.95-1.39-3.97C976.6,1048.81,975.46,1048.29,974.04,1048.29z"/>
	</g>
</g>
<g>
	<g class="st1">
		<path class="st2" d="M1012,963.86c0-1.26-0.44-2.26-1.33-2.99c-0.89-0.73-2.51-1.43-4.86-2.09c-2.35-0.66-4.07-1.38-5.16-2.16
			c-1.54-1.1-2.31-2.55-2.31-4.34c0-1.74,0.72-3.15,2.15-4.24c1.43-1.09,3.26-1.63,5.49-1.63c1.51,0,2.86,0.29,4.05,0.88
			c1.19,0.58,2.12,1.4,2.77,2.44s0.98,2.2,0.98,3.48h-1.94c0-1.56-0.53-2.81-1.59-3.75c-1.06-0.95-2.49-1.42-4.28-1.42
			c-1.74,0-3.12,0.39-4.16,1.17s-1.55,1.79-1.55,3.04c0,1.16,0.46,2.1,1.39,2.83c0.93,0.73,2.41,1.38,4.45,1.93
			c2.04,0.56,3.59,1.14,4.64,1.74c1.05,0.6,1.84,1.32,2.38,2.15c0.53,0.83,0.8,1.82,0.8,2.95c0,1.79-0.72,3.23-2.15,4.31
			c-1.43,1.08-3.32,1.62-5.66,1.62c-1.6,0-3.08-0.29-4.41-0.86c-1.34-0.57-2.35-1.38-3.05-2.41c-0.69-1.03-1.04-2.21-1.04-3.55h1.92
			c0,1.6,0.6,2.87,1.8,3.8c1.2,0.93,2.79,1.39,4.78,1.39c1.77,0,3.19-0.39,4.27-1.17C1011.46,966.19,1012,965.15,1012,963.86z"/>
		<path class="st2" d="M1024.18,969.77c-1.44,0-2.74-0.35-3.9-1.06c-1.16-0.71-2.07-1.7-2.71-2.96c-0.65-1.27-0.97-2.69-0.97-4.26
			v-0.67c0-1.62,0.31-3.09,0.95-4.39c0.63-1.3,1.51-2.33,2.63-3.07c1.12-0.74,2.34-1.12,3.66-1.12c2.05,0,3.68,0.7,4.88,2.1
			c1.2,1.4,1.8,3.32,1.8,5.74v1.05h-12.06v0.36c0,1.92,0.55,3.51,1.65,4.79c1.1,1.28,2.48,1.91,4.15,1.91c1,0,1.88-0.18,2.65-0.55
			s1.46-0.95,2.09-1.75l1.17,0.89C1028.79,968.77,1026.8,969.77,1024.18,969.77z M1023.84,953.83c-1.41,0-2.59,0.52-3.55,1.55
			c-0.96,1.03-1.55,2.42-1.76,4.16h10.14v-0.2c-0.05-1.62-0.52-2.95-1.39-3.97C1026.4,954.34,1025.26,953.83,1023.84,953.83z"/>
		<path class="st2" d="M1039.43,966.88l5.14-14.33h1.92l-6.31,16.91h-1.52l-6.34-16.91h1.92L1039.43,966.88z"/>
		<path class="st2" d="M1056.11,969.77c-1.44,0-2.74-0.35-3.9-1.06c-1.16-0.71-2.07-1.7-2.71-2.96c-0.65-1.27-0.97-2.69-0.97-4.26
			v-0.67c0-1.62,0.31-3.09,0.95-4.39c0.63-1.3,1.51-2.33,2.63-3.07c1.12-0.74,2.34-1.12,3.66-1.12c2.05,0,3.68,0.7,4.88,2.1
			c1.2,1.4,1.8,3.32,1.8,5.74v1.05h-12.06v0.36c0,1.92,0.55,3.51,1.65,4.79c1.1,1.28,2.48,1.91,4.15,1.91c1,0,1.88-0.18,2.65-0.55
			s1.46-0.95,2.09-1.75l1.17,0.89C1060.72,968.77,1058.72,969.77,1056.11,969.77z M1055.76,953.83c-1.41,0-2.59,0.52-3.55,1.55
			c-0.96,1.03-1.55,2.42-1.76,4.16h10.14v-0.2c-0.05-1.62-0.52-2.95-1.39-3.97C1058.33,954.34,1057.18,953.83,1055.76,953.83z"/>
		<path class="st2" d="M1073.9,954.14c-0.4-0.07-0.82-0.11-1.27-0.11c-1.17,0-2.15,0.33-2.96,0.98c-0.81,0.65-1.38,1.6-1.73,2.84
			v11.61h-1.86v-16.91h1.83l0.03,2.69c0.99-2,2.58-3,4.77-3c0.52,0,0.93,0.07,1.23,0.2L1073.9,954.14z"/>
		<path class="st2" d="M1087.53,969.46c-0.19-0.53-0.31-1.32-0.36-2.36c-0.66,0.85-1.49,1.51-2.51,1.98s-2.09,0.7-3.23,0.7
			c-1.62,0-2.94-0.45-3.95-1.36c-1.01-0.91-1.51-2.05-1.51-3.44c0-1.65,0.68-2.95,2.05-3.91c1.37-0.96,3.28-1.44,5.73-1.44h3.39
			v-1.92c0-1.21-0.37-2.16-1.12-2.85c-0.75-0.69-1.83-1.04-3.26-1.04c-1.3,0-2.38,0.33-3.23,1c-0.85,0.67-1.28,1.47-1.28,2.41
			l-1.88-0.02c0-1.34,0.62-2.51,1.88-3.49s2.79-1.48,4.61-1.48c1.88,0,3.37,0.47,4.46,1.41c1.09,0.94,1.65,2.26,1.68,3.95v8
			c0,1.64,0.17,2.86,0.52,3.67v0.19H1087.53z M1081.65,968.11c1.25,0,2.37-0.3,3.35-0.91s1.7-1.41,2.15-2.42v-3.72h-3.34
			c-1.87,0.02-3.32,0.36-4.38,1.02c-1.05,0.66-1.58,1.57-1.58,2.73c0,0.95,0.35,1.73,1.05,2.36S1080.53,968.11,1081.65,968.11z"/>
		<path class="st2" d="M1096.09,969.46h-1.88v-24h1.88V969.46z"/>
		<path class="st2" d="M1110.29,969.46v-15.38h-2.8v-1.53h2.8v-2.05c0-1.73,0.44-3.06,1.32-3.98c0.88-0.93,2.11-1.39,3.68-1.39
			c0.71,0,1.37,0.09,1.98,0.26l-0.14,1.55c-0.52-0.12-1.09-0.19-1.7-0.19c-1.03,0-1.83,0.32-2.41,0.96
			c-0.57,0.64-0.86,1.55-0.86,2.73v2.1h4.03v1.53h-4.03v15.38H1110.29z"/>
		<path class="st2" d="M1126.09,969.77c-1.44,0-2.74-0.35-3.9-1.06c-1.16-0.71-2.07-1.7-2.71-2.96c-0.65-1.27-0.97-2.69-0.97-4.26
			v-0.67c0-1.62,0.31-3.09,0.95-4.39c0.63-1.3,1.51-2.33,2.63-3.07c1.12-0.74,2.34-1.12,3.66-1.12c2.05,0,3.68,0.7,4.88,2.1
			c1.2,1.4,1.8,3.32,1.8,5.74v1.05h-12.06v0.36c0,1.92,0.55,3.51,1.65,4.79c1.1,1.28,2.48,1.91,4.15,1.91c1,0,1.88-0.18,2.65-0.55
			s1.46-0.95,2.09-1.75l1.17,0.89C1130.7,968.77,1128.71,969.77,1126.09,969.77z M1125.75,953.83c-1.41,0-2.59,0.52-3.55,1.55
			c-0.96,1.03-1.55,2.42-1.76,4.16h10.14v-0.2c-0.05-1.62-0.52-2.95-1.39-3.97C1128.31,954.34,1127.16,953.83,1125.75,953.83z"/>
		<path class="st2" d="M1137.78,952.55l0.06,2.75c0.62-1.02,1.41-1.79,2.34-2.3c0.94-0.51,1.98-0.77,3.12-0.77
			c2.67,0,4.36,1.09,5.08,3.28c0.6-1.05,1.41-1.86,2.42-2.43c1.01-0.57,2.12-0.85,3.34-0.85c3.62,0,5.47,1.98,5.55,5.94v11.28h-1.88
			v-11.14c-0.01-1.51-0.34-2.63-0.98-3.36c-0.64-0.73-1.69-1.09-3.13-1.09c-1.34,0.02-2.48,0.46-3.41,1.31
			c-0.93,0.85-1.44,1.88-1.55,3.1v11.19h-1.88v-11.28c-0.01-1.45-0.35-2.53-1.02-3.24c-0.67-0.71-1.71-1.07-3.1-1.07
			c-1.18,0-2.19,0.34-3.03,1.01c-0.84,0.67-1.47,1.67-1.88,2.99v11.59h-1.88v-16.91H1137.78z"/>
		<path class="st2" d="M1175.11,969.46c-0.19-0.53-0.31-1.32-0.36-2.36c-0.66,0.85-1.49,1.51-2.51,1.98s-2.09,0.7-3.23,0.7
			c-1.62,0-2.94-0.45-3.95-1.36c-1.01-0.91-1.51-2.05-1.51-3.44c0-1.65,0.68-2.95,2.05-3.91c1.37-0.96,3.28-1.44,5.73-1.44h3.39
			v-1.92c0-1.21-0.37-2.16-1.12-2.85c-0.75-0.69-1.83-1.04-3.26-1.04c-1.3,0-2.38,0.33-3.23,1c-0.85,0.67-1.28,1.47-1.28,2.41
			l-1.88-0.02c0-1.34,0.62-2.51,1.88-3.49s2.79-1.48,4.61-1.48c1.88,0,3.37,0.47,4.46,1.41c1.09,0.94,1.65,2.26,1.68,3.95v8
			c0,1.64,0.17,2.86,0.52,3.67v0.19H1175.11z M1169.23,968.11c1.25,0,2.37-0.3,3.35-0.91s1.7-1.41,2.15-2.42v-3.72h-3.34
			c-1.87,0.02-3.32,0.36-4.38,1.02c-1.05,0.66-1.58,1.57-1.58,2.73c0,0.95,0.35,1.73,1.05,2.36S1168.11,968.11,1169.23,968.11z"/>
		<path class="st2" d="M1183.67,969.46h-1.88v-24h1.88V969.46z"/>
		<path class="st2" d="M1195.29,969.77c-1.44,0-2.74-0.35-3.9-1.06c-1.16-0.71-2.07-1.7-2.71-2.96c-0.65-1.27-0.97-2.69-0.97-4.26
			v-0.67c0-1.62,0.31-3.09,0.95-4.39c0.63-1.3,1.51-2.33,2.63-3.07c1.12-0.74,2.34-1.12,3.66-1.12c2.05,0,3.68,0.7,4.88,2.1
			c1.2,1.4,1.8,3.32,1.8,5.74v1.05h-12.06v0.36c0,1.92,0.55,3.51,1.65,4.79c1.1,1.28,2.48,1.91,4.15,1.91c1,0,1.88-0.18,2.65-0.55
			s1.46-0.95,2.09-1.75l1.17,0.89C1199.9,968.77,1197.91,969.77,1195.29,969.77z M1194.95,953.83c-1.41,0-2.59,0.52-3.55,1.55
			c-0.96,1.03-1.55,2.42-1.76,4.16h10.14v-0.2c-0.05-1.62-0.52-2.95-1.39-3.97C1197.51,954.34,1196.37,953.83,1194.95,953.83z"/>
		<path class="st2" d="M1215.4,965.16c0-0.93-0.37-1.67-1.12-2.24c-0.75-0.56-1.87-1-3.37-1.32c-1.5-0.32-2.66-0.68-3.49-1.09
			c-0.83-0.41-1.44-0.91-1.84-1.51c-0.4-0.59-0.6-1.31-0.6-2.16c0-1.33,0.56-2.44,1.67-3.31c1.11-0.87,2.54-1.3,4.28-1.3
			c1.88,0,3.4,0.47,4.54,1.4c1.14,0.93,1.71,2.15,1.71,3.65h-1.88c0-0.99-0.41-1.81-1.24-2.47c-0.83-0.66-1.87-0.99-3.13-0.99
			c-1.23,0-2.22,0.27-2.96,0.82c-0.75,0.55-1.12,1.26-1.12,2.13c0,0.84,0.31,1.5,0.93,1.96c0.62,0.46,1.75,0.89,3.39,1.27
			s2.87,0.8,3.69,1.23c0.82,0.44,1.42,0.96,1.82,1.58c0.4,0.62,0.59,1.36,0.59,2.24c0,1.43-0.58,2.57-1.73,3.42
			c-1.15,0.85-2.65,1.28-4.51,1.28c-1.97,0-3.57-0.48-4.79-1.43c-1.22-0.95-1.84-2.16-1.84-3.62h1.88c0.07,1.09,0.53,1.95,1.38,2.55
			c0.85,0.61,1.97,0.91,3.37,0.91c1.3,0,2.35-0.29,3.16-0.86C1215,966.76,1215.4,966.03,1215.4,965.16z"/>
	</g>
</g>
<g>
	<g class="st1">
		<path class="st2" d="M984.97,774.78h-1.92v-22.75h1.92V774.78z"/>
		<path class="st2" d="M992.49,757.87l0.06,2.89c0.63-1.04,1.43-1.84,2.38-2.38c0.95-0.55,1.99-0.82,3.14-0.82
			c1.81,0,3.16,0.51,4.05,1.53c0.88,1.02,1.33,2.55,1.34,4.59v11.09h-1.86v-11.11c-0.01-1.51-0.33-2.64-0.96-3.38
			c-0.63-0.74-1.64-1.11-3.02-1.11c-1.16,0-2.18,0.36-3.07,1.09c-0.89,0.72-1.55,1.7-1.98,2.93v11.58h-1.86v-16.91H992.49z"/>
		<path class="st2" d="M1009.63,774.78V759.4h-2.8v-1.53h2.8v-2.05c0-1.73,0.44-3.06,1.32-3.98c0.88-0.93,2.11-1.39,3.68-1.39
			c0.71,0,1.37,0.09,1.98,0.26l-0.14,1.55c-0.52-0.12-1.09-0.19-1.7-0.19c-1.03,0-1.83,0.32-2.41,0.96
			c-0.57,0.64-0.86,1.55-0.86,2.73v2.1h4.03v1.53h-4.03v15.38H1009.63z"/>
		<path class="st2" d="M1029.55,774.78c-0.19-0.53-0.31-1.32-0.36-2.36c-0.66,0.85-1.49,1.51-2.51,1.98s-2.09,0.7-3.23,0.7
			c-1.62,0-2.94-0.45-3.95-1.36c-1.01-0.91-1.51-2.05-1.51-3.44c0-1.65,0.68-2.95,2.05-3.91c1.37-0.96,3.28-1.44,5.73-1.44h3.39
			v-1.92c0-1.21-0.37-2.16-1.12-2.85c-0.75-0.69-1.83-1.04-3.26-1.04c-1.3,0-2.38,0.33-3.23,1c-0.85,0.67-1.28,1.47-1.28,2.41
			l-1.88-0.02c0-1.34,0.62-2.51,1.88-3.49s2.79-1.48,4.61-1.48c1.88,0,3.37,0.47,4.46,1.41c1.09,0.94,1.65,2.26,1.68,3.95v8
			c0,1.64,0.17,2.86,0.52,3.67v0.19H1029.55z M1023.68,773.43c1.25,0,2.37-0.3,3.35-0.91s1.7-1.41,2.15-2.42v-3.72h-3.34
			c-1.87,0.02-3.32,0.36-4.38,1.02c-1.05,0.66-1.58,1.57-1.58,2.73c0,0.95,0.35,1.73,1.05,2.36S1022.55,773.43,1023.68,773.43z"/>
		<path class="st2" d="M1037.8,757.87l0.06,2.89c0.63-1.04,1.43-1.84,2.38-2.38c0.95-0.55,1.99-0.82,3.14-0.82
			c1.81,0,3.16,0.51,4.05,1.53c0.88,1.02,1.33,2.55,1.34,4.59v11.09h-1.86v-11.11c-0.01-1.51-0.33-2.64-0.96-3.38
			c-0.63-0.74-1.64-1.11-3.02-1.11c-1.16,0-2.18,0.36-3.07,1.09c-0.89,0.72-1.55,1.7-1.98,2.93v11.58h-1.86v-16.91H1037.8z"/>
		<path class="st2" d="M1056.5,753.54v4.33h3.5v1.53h-3.5v11.28c0,0.94,0.17,1.64,0.51,2.1c0.34,0.46,0.9,0.69,1.7,0.69
			c0.31,0,0.82-0.05,1.52-0.16l0.08,1.52c-0.49,0.17-1.16,0.26-2,0.26c-1.28,0-2.21-0.37-2.8-1.12c-0.58-0.75-0.88-1.84-0.88-3.29
			V759.4h-3.11v-1.53h3.11v-4.33H1056.5z"/>
	</g>
</g>
<g>
	<g>
		<line class="st6" x1="318.37" y1="917.31" x2="654.43" y2="917.31"/>
		<g>
			<path class="st7" d="M646.23,923.07c-0.18-0.28-0.09-0.65,0.19-0.83l7.74-4.93l-7.74-4.93c-0.28-0.18-0.36-0.55-0.19-0.83
				c0.18-0.28,0.55-0.36,0.83-0.18l8.54,5.44c0.17,0.11,0.28,0.3,0.28,0.51s-0.11,0.4-0.28,0.51l-8.54,5.44
				c-0.1,0.06-0.21,0.09-0.32,0.09C646.54,923.34,646.34,923.25,646.23,923.07z"/>
		</g>
	</g>
</g>
<g>
	<g>
		<polyline class="st6" points="988.64,957.68 956.37,957.68 956.37,929.4 		"/>
		<g>
			<polygon class="st7" points="961.28,933.38 960.4,934.2 956.38,929.86 952.35,934.2 951.47,933.38 956.38,928.1 			"/>
		</g>
	</g>
</g>
<g>
	<g>
		<line class="st6" x1="875.7" y1="1024.26" x2="875.7" y2="974.73"/>
		<g>
			<polygon class="st7" points="880.61,978.7 879.73,979.52 875.7,975.19 871.67,979.52 870.79,978.7 875.7,973.43 			"/>
		</g>
	</g>
</g>
<g>
	<g>
		<polyline class="st6" points="971.23,761.97 928.47,761.97 928.47,780.27 		"/>
		<g>
			<polygon class="st7" points="923.57,776.29 924.44,775.47 928.47,779.8 932.5,775.47 933.38,776.29 928.47,781.57 			"/>
		</g>
	</g>
</g>
</svg>
